<?xml version="1.0" encoding="us-ascii" standalone="no"?><svg xmlns="http://www.w3.org/2000/svg" xmlns:xlink="http://www.w3.org/1999/xlink" contentStyleType="text/css" height="1161px" preserveAspectRatio="none" style="width:1216px;height:1161px;background:#FFFFFF;" version="1.1" viewBox="0 0 1216 1161" width="1216px" zoomAndPan="magnify"><defs/><g><text fill="#000000" font-family="sans-serif" font-size="14" font-weight="bold" lengthAdjust="spacing" textLength="425" x="397.25" y="27.9951">Dispense of medication before a existing prescription</text><rect fill="none" height="149.9297" style="stroke:#000000;stroke-width:1.5;" width="428.5" x="10" y="135.5938"/><rect fill="none" height="188.9297" style="stroke:#000000;stroke-width:1.5;" width="308" x="370.5" y="299.5234"/><rect fill="none" height="149.9297" style="stroke:#000000;stroke-width:1.5;" width="840" x="370.5" y="502.4531"/><rect fill="none" height="188.9297" style="stroke:#000000;stroke-width:1.5;" width="388" x="370.5" y="666.3828"/><rect fill="none" height="105.6641" style="stroke:#000000;stroke-width:1.5;" width="1041.5" x="169" y="869.3125"/><rect fill="none" height="74.3984" style="stroke:#000000;stroke-width:1.5;" width="330" x="370.5" y="988.9766"/><line style="stroke:#181818;stroke-width:0.5;stroke-dasharray:5.0,5.0;" x1="57" x2="57" y1="118.5938" y2="1080.375"/><line style="stroke:#181818;stroke-width:0.5;stroke-dasharray:5.0,5.0;" x1="217" x2="217" y1="118.5938" y2="1080.375"/><line style="stroke:#181818;stroke-width:0.5;stroke-dasharray:5.0,5.0;" x1="404.5" x2="404.5" y1="118.5938" y2="1080.375"/><line style="stroke:#181818;stroke-width:0.5;stroke-dasharray:5.0,5.0;" x1="1159.5" x2="1159.5" y1="118.5938" y2="1080.375"/><text fill="#000000" font-family="sans-serif" font-size="14" lengthAdjust="spacing" textLength="69" x="20" y="115.292">Pia Peters</text><ellipse cx="57.5" cy="50.7969" fill="#E2E2F0" rx="8" ry="8" style="stroke:#181818;stroke-width:0.5;"/><path d="M57.5,58.7969 L57.5,85.7969 M44.5,66.7969 L70.5,66.7969 M57.5,85.7969 L44.5,100.7969 M57.5,85.7969 L70.5,100.7969 " fill="none" style="stroke:#181818;stroke-width:0.5;"/><text fill="#000000" font-family="sans-serif" font-size="14" lengthAdjust="spacing" textLength="69" x="20" y="1092.3701">Pia Peters</text><ellipse cx="57.5" cy="1104.1719" fill="#E2E2F0" rx="8" ry="8" style="stroke:#181818;stroke-width:0.5;"/><path d="M57.5,1112.1719 L57.5,1139.1719 M44.5,1120.1719 L70.5,1120.1719 M57.5,1139.1719 L44.5,1154.1719 M57.5,1139.1719 L70.5,1154.1719 " fill="none" style="stroke:#181818;stroke-width:0.5;"/><text fill="#000000" font-family="sans-serif" font-size="14" lengthAdjust="spacing" textLength="71" x="179" y="115.292">Dr. Durant</text><ellipse cx="217.5" cy="50.7969" fill="#E2E2F0" rx="8" ry="8" style="stroke:#181818;stroke-width:0.5;"/><path d="M217.5,58.7969 L217.5,85.7969 M204.5,66.7969 L230.5,66.7969 M217.5,85.7969 L204.5,100.7969 M217.5,85.7969 L230.5,100.7969 " fill="none" style="stroke:#181818;stroke-width:0.5;"/><text fill="#000000" font-family="sans-serif" font-size="14" lengthAdjust="spacing" textLength="71" x="179" y="1092.3701">Dr. Durant</text><ellipse cx="217.5" cy="1104.1719" fill="#E2E2F0" rx="8" ry="8" style="stroke:#181818;stroke-width:0.5;"/><path d="M217.5,1112.1719 L217.5,1139.1719 M204.5,1120.1719 L230.5,1120.1719 M217.5,1139.1719 L204.5,1154.1719 M217.5,1139.1719 L230.5,1154.1719 " fill="none" style="stroke:#181818;stroke-width:0.5;"/><rect fill="#E2E2F0" height="30.2969" rx="2.5" ry="2.5" style="stroke:#181818;stroke-width:0.5;" width="48" x="380.5" y="87.2969"/><text fill="#000000" font-family="sans-serif" font-size="14" lengthAdjust="spacing" textLength="34" x="387.5" y="107.292">Vault</text><rect fill="#E2E2F0" height="30.2969" rx="2.5" ry="2.5" style="stroke:#181818;stroke-width:0.5;" width="48" x="380.5" y="1079.375"/><text fill="#000000" font-family="sans-serif" font-size="14" lengthAdjust="spacing" textLength="34" x="387.5" y="1099.3701">Vault</text><text fill="#000000" font-family="sans-serif" font-size="14" lengthAdjust="spacing" textLength="76" x="1118.5" y="115.292">Pharmacist</text><ellipse cx="1159.5" cy="50.7969" fill="#E2E2F0" rx="8" ry="8" style="stroke:#181818;stroke-width:0.5;"/><path d="M1159.5,58.7969 L1159.5,85.7969 M1146.5,66.7969 L1172.5,66.7969 M1159.5,85.7969 L1146.5,100.7969 M1159.5,85.7969 L1172.5,100.7969 " fill="none" style="stroke:#181818;stroke-width:0.5;"/><text fill="#000000" font-family="sans-serif" font-size="14" lengthAdjust="spacing" textLength="76" x="1118.5" y="1092.3701">Pharmacist</text><ellipse cx="1159.5" cy="1104.1719" fill="#E2E2F0" rx="8" ry="8" style="stroke:#181818;stroke-width:0.5;"/><path d="M1159.5,1112.1719 L1159.5,1139.1719 M1146.5,1120.1719 L1172.5,1120.1719 M1159.5,1139.1719 L1146.5,1154.1719 M1159.5,1139.1719 L1172.5,1154.1719 " fill="none" style="stroke:#181818;stroke-width:0.5;"/><path d="M10,135.5938 L157,135.5938 L157,142.7266 L147,152.7266 L10,152.7266 L10,135.5938 " fill="#EEEEEE" style="stroke:#000000;stroke-width:1.5;"/><rect fill="none" height="149.9297" style="stroke:#000000;stroke-width:1.5;" width="428.5" x="10" y="135.5938"/><text fill="#000000" font-family="sans-serif" font-size="13" font-weight="bold" lengthAdjust="spacing" textLength="102" x="25" y="148.6606">Initial Contact</text><polygon fill="#181818" points="205.5,184.9922,215.5,188.9922,205.5,192.9922,209.5,188.9922" style="stroke:#181818;stroke-width:1.0;"/><line style="stroke:#181818;stroke-width:1.0;" x1="57.5" x2="211.5" y1="188.9922" y2="188.9922"/><text fill="#000000" font-family="sans-serif" font-size="13" lengthAdjust="spacing" textLength="136" x="64.5" y="168.7935">Goes to appointment</text><text fill="#000000" font-family="sans-serif" font-size="13" lengthAdjust="spacing" textLength="4" x="64.5" y="183.9263">&#160;</text><polygon fill="#181818" points="228.5,229.2578,218.5,233.2578,228.5,237.2578,224.5,233.2578" style="stroke:#181818;stroke-width:1.0;"/><line style="stroke:#181818;stroke-width:1.0;" x1="222.5" x2="403.5" y1="233.2578" y2="233.2578"/><text fill="#000000" font-family="sans-serif" font-size="13" lengthAdjust="spacing" textLength="155" x="234.5" y="213.0591">Get Patient's Medication</text><a href="ExampleScenario-example-3-scenario-resources.html#EB" target="_top" title="ExampleScenario-example-3-scenario-resources.html#EB" xlink:actuate="onRequest" xlink:href="ExampleScenario-example-3-scenario-resources.html#EB" xlink:show="new" xlink:title="ExampleScenario-example-3-scenario-resources.html#EB" xlink:type="simple"><text fill="#0000FF" font-family="sans-serif" font-size="13" lengthAdjust="spacing" text-decoration="underline" textLength="89" x="234.5" y="228.1919">Empty Bundle</text></a><polygon fill="#181818" points="392.5,273.5234,402.5,277.5234,392.5,281.5234,396.5,277.5234" style="stroke:#181818;stroke-width:1.0;"/><line style="stroke:#181818;stroke-width:1.0;" x1="217.5" x2="398.5" y1="277.5234" y2="277.5234"/><text fill="#000000" font-family="sans-serif" font-size="13" lengthAdjust="spacing" textLength="151" x="224.5" y="257.3247">Create new prescription</text><a href="ExampleScenario-example-3-scenario-resources.html#3-prescription" target="_top" title="ExampleScenario-example-3-scenario-resources.html#3-prescription" xlink:actuate="onRequest" xlink:href="ExampleScenario-example-3-scenario-resources.html#3-prescription" xlink:show="new" xlink:title="ExampleScenario-example-3-scenario-resources.html#3-prescription" xlink:type="simple"><text fill="#0000FF" font-family="sans-serif" font-size="13" lengthAdjust="spacing" text-decoration="underline" textLength="145" x="224.5" y="272.4575">Diclofenac Prescription</text></a><path d="M370.5,299.5234 L635.5,299.5234 L635.5,306.6563 L625.5,316.6563 L370.5,316.6563 L370.5,299.5234 " fill="#EEEEEE" style="stroke:#000000;stroke-width:1.5;"/><rect fill="none" height="188.9297" style="stroke:#000000;stroke-width:1.5;" width="308" x="370.5" y="299.5234"/><text fill="#000000" font-family="sans-serif" font-size="13" font-weight="bold" lengthAdjust="spacing" textLength="220" x="385.5" y="312.5903">Treatment resources Creation</text><line style="stroke:#181818;stroke-width:1.0;" x1="404.5" x2="446.5" y1="352.9219" y2="352.9219"/><line style="stroke:#181818;stroke-width:1.0;" x1="446.5" x2="446.5" y1="352.9219" y2="365.9219"/><line style="stroke:#181818;stroke-width:1.0;" x1="405.5" x2="446.5" y1="365.9219" y2="365.9219"/><polygon fill="#181818" points="415.5,361.9219,405.5,365.9219,415.5,369.9219,411.5,365.9219" style="stroke:#181818;stroke-width:1.0;"/><text fill="#000000" font-family="sans-serif" font-size="13" lengthAdjust="spacing" textLength="141" x="411.5" y="332.7231">Create new treatment</text><a href="ExampleScenario-example-3-scenario-resources.html#3-treatment" target="_top" title="ExampleScenario-example-3-scenario-resources.html#3-treatment" xlink:actuate="onRequest" xlink:href="ExampleScenario-example-3-scenario-resources.html#3-treatment" xlink:show="new" xlink:title="ExampleScenario-example-3-scenario-resources.html#3-treatment" xlink:type="simple"><text fill="#0000FF" font-family="sans-serif" font-size="13" lengthAdjust="spacing" text-decoration="underline" textLength="98" x="411.5" y="347.856">New Treatment</text></a><line style="stroke:#181818;stroke-width:1.0;" x1="404.5" x2="446.5" y1="410.1875" y2="410.1875"/><line style="stroke:#181818;stroke-width:1.0;" x1="446.5" x2="446.5" y1="410.1875" y2="423.1875"/><line style="stroke:#181818;stroke-width:1.0;" x1="405.5" x2="446.5" y1="423.1875" y2="423.1875"/><polygon fill="#181818" points="415.5,419.1875,405.5,423.1875,415.5,427.1875,411.5,423.1875" style="stroke:#181818;stroke-width:1.0;"/><text fill="#000000" font-family="sans-serif" font-size="13" lengthAdjust="spacing" textLength="171" x="411.5" y="389.9888">Create new treatment Line</text><a href="ExampleScenario-example-3-scenario-resources.html#3-treatmentLine" target="_top" title="ExampleScenario-example-3-scenario-resources.html#3-treatmentLine" xlink:actuate="onRequest" xlink:href="ExampleScenario-example-3-scenario-resources.html#3-treatmentLine" xlink:show="new" xlink:title="ExampleScenario-example-3-scenario-resources.html#3-treatmentLine" xlink:type="simple"><text fill="#0000FF" font-family="sans-serif" font-size="13" lengthAdjust="spacing" text-decoration="underline" textLength="128" x="411.5" y="405.1216">New Treatment Line</text></a><line style="stroke:#181818;stroke-width:1.0;" x1="404.5" x2="446.5" y1="467.4531" y2="467.4531"/><line style="stroke:#181818;stroke-width:1.0;" x1="446.5" x2="446.5" y1="467.4531" y2="480.4531"/><line style="stroke:#181818;stroke-width:1.0;" x1="405.5" x2="446.5" y1="480.4531" y2="480.4531"/><polygon fill="#181818" points="415.5,476.4531,405.5,480.4531,415.5,484.4531,411.5,480.4531" style="stroke:#181818;stroke-width:1.0;"/><text fill="#000000" font-family="sans-serif" font-size="13" lengthAdjust="spacing" textLength="107" x="411.5" y="447.2544">Resource Linking</text><a href="ExampleScenario-example-3-scenario-resources.html#3-1-provenance" target="_top" title="ExampleScenario-example-3-scenario-resources.html#3-1-provenance" xlink:actuate="onRequest" xlink:href="ExampleScenario-example-3-scenario-resources.html#3-1-provenance" xlink:show="new" xlink:title="ExampleScenario-example-3-scenario-resources.html#3-1-provenance" xlink:type="simple"><text fill="#0000FF" font-family="sans-serif" font-size="13" lengthAdjust="spacing" text-decoration="underline" textLength="255" x="411.5" y="462.3872">Link first Prescription and treatmentLine</text></a><path d="M370.5,502.4531 L483.5,502.4531 L483.5,509.5859 L473.5,519.5859 L370.5,519.5859 L370.5,502.4531 " fill="#EEEEEE" style="stroke:#000000;stroke-width:1.5;"/><rect fill="none" height="149.9297" style="stroke:#000000;stroke-width:1.5;" width="840" x="370.5" y="502.4531"/><text fill="#000000" font-family="sans-serif" font-size="13" font-weight="bold" lengthAdjust="spacing" textLength="68" x="385.5" y="515.52">Dispense</text><polygon fill="#181818" points="1147.5,551.8516,1157.5,555.8516,1147.5,559.8516,1151.5,555.8516" style="stroke:#181818;stroke-width:1.0;"/><line style="stroke:#181818;stroke-width:1.0;" x1="404.5" x2="1153.5" y1="555.8516" y2="555.8516"/><text fill="#000000" font-family="sans-serif" font-size="13" lengthAdjust="spacing" textLength="168" x="411.5" y="535.6528">Get patient's Prescriptions</text><a href="ExampleScenario-example-3-scenario-resources.html#EB" target="_top" title="ExampleScenario-example-3-scenario-resources.html#EB" xlink:actuate="onRequest" xlink:href="ExampleScenario-example-3-scenario-resources.html#EB" xlink:show="new" xlink:title="ExampleScenario-example-3-scenario-resources.html#EB" xlink:type="simple"><text fill="#0000FF" font-family="sans-serif" font-size="13" lengthAdjust="spacing" text-decoration="underline" textLength="89" x="411.5" y="550.7856">Empty Bundle</text></a><polygon fill="#181818" points="415.5,596.1172,405.5,600.1172,415.5,604.1172,411.5,600.1172" style="stroke:#181818;stroke-width:1.0;"/><line style="stroke:#181818;stroke-width:1.0;" x1="409.5" x2="1158.5" y1="600.1172" y2="600.1172"/><text fill="#000000" font-family="sans-serif" font-size="13" lengthAdjust="spacing" textLength="170" x="421.5" y="579.9185">Dispense original dispense</text><a href="ExampleScenario-example-3-scenario-resources.html#3-dispense" target="_top" title="ExampleScenario-example-3-scenario-resources.html#3-dispense" xlink:actuate="onRequest" xlink:href="ExampleScenario-example-3-scenario-resources.html#3-dispense" xlink:show="new" xlink:title="ExampleScenario-example-3-scenario-resources.html#3-dispense" xlink:type="simple"><text fill="#0000FF" font-family="sans-serif" font-size="13" lengthAdjust="spacing" text-decoration="underline" textLength="129" x="421.5" y="595.0513">Diclofenac Dispense</text></a><polygon fill="#181818" points="415.5,640.3828,405.5,644.3828,415.5,648.3828,411.5,644.3828" style="stroke:#181818;stroke-width:1.0;"/><line style="stroke:#181818;stroke-width:1.0;" x1="409.5" x2="1158.5" y1="644.3828" y2="644.3828"/><text fill="#000000" font-family="sans-serif" font-size="13" lengthAdjust="spacing" textLength="171" x="421.5" y="624.1841">Dispense ancilliary product</text><text fill="#000000" font-family="sans-serif" font-size="13" lengthAdjust="spacing" textLength="731" x="421.5" y="639.3169">[[ExampleScenario-example-3-scenario-resources.html#3-2-dispense Pantoprazole Dispense [ancilliary product]]]</text><path d="M370.5,666.3828 L753.5,666.3828 L753.5,673.5156 L743.5,683.5156 L370.5,683.5156 L370.5,666.3828 " fill="#EEEEEE" style="stroke:#000000;stroke-width:1.5;"/><rect fill="none" height="188.9297" style="stroke:#000000;stroke-width:1.5;" width="388" x="370.5" y="666.3828"/><text fill="#000000" font-family="sans-serif" font-size="13" font-weight="bold" lengthAdjust="spacing" textLength="338" x="385.5" y="679.4497">Treatment Line Creation and resource Linking</text><line style="stroke:#181818;stroke-width:1.0;" x1="404.5" x2="446.5" y1="719.7813" y2="719.7813"/><line style="stroke:#181818;stroke-width:1.0;" x1="446.5" x2="446.5" y1="719.7813" y2="732.7813"/><line style="stroke:#181818;stroke-width:1.0;" x1="405.5" x2="446.5" y1="732.7813" y2="732.7813"/><polygon fill="#181818" points="415.5,728.7813,405.5,732.7813,415.5,736.7813,411.5,732.7813" style="stroke:#181818;stroke-width:1.0;"/><text fill="#000000" font-family="sans-serif" font-size="13" lengthAdjust="spacing" textLength="261" x="411.5" y="699.5825">New Treatment Line for anciiliary product</text><a href="ExampleScenario-example-3-scenario-resources.html#3-treatmentLine" target="_top" title="ExampleScenario-example-3-scenario-resources.html#3-treatmentLine" xlink:actuate="onRequest" xlink:href="ExampleScenario-example-3-scenario-resources.html#3-treatmentLine" xlink:show="new" xlink:title="ExampleScenario-example-3-scenario-resources.html#3-treatmentLine" xlink:type="simple"><text fill="#0000FF" font-family="sans-serif" font-size="13" lengthAdjust="spacing" text-decoration="underline" textLength="128" x="411.5" y="714.7153">New Treatment Line</text></a><line style="stroke:#181818;stroke-width:1.0;" x1="404.5" x2="446.5" y1="777.0469" y2="777.0469"/><line style="stroke:#181818;stroke-width:1.0;" x1="446.5" x2="446.5" y1="777.0469" y2="790.0469"/><line style="stroke:#181818;stroke-width:1.0;" x1="405.5" x2="446.5" y1="790.0469" y2="790.0469"/><polygon fill="#181818" points="415.5,786.0469,405.5,790.0469,415.5,794.0469,411.5,790.0469" style="stroke:#181818;stroke-width:1.0;"/><text fill="#000000" font-family="sans-serif" font-size="13" lengthAdjust="spacing" textLength="107" x="411.5" y="756.8481">Resource Linking</text><a href="ExampleScenario-example-3-scenario-resources.html#3-2-provenance" target="_top" title="ExampleScenario-example-3-scenario-resources.html#3-2-provenance" xlink:actuate="onRequest" xlink:href="ExampleScenario-example-3-scenario-resources.html#3-2-provenance" xlink:show="new" xlink:title="ExampleScenario-example-3-scenario-resources.html#3-2-provenance" xlink:type="simple"><text fill="#0000FF" font-family="sans-serif" font-size="13" lengthAdjust="spacing" text-decoration="underline" textLength="237" x="411.5" y="771.981">Link first dispense and treatmentLine</text></a><line style="stroke:#181818;stroke-width:1.0;" x1="404.5" x2="446.5" y1="834.3125" y2="834.3125"/><line style="stroke:#181818;stroke-width:1.0;" x1="446.5" x2="446.5" y1="834.3125" y2="847.3125"/><line style="stroke:#181818;stroke-width:1.0;" x1="405.5" x2="446.5" y1="847.3125" y2="847.3125"/><polygon fill="#181818" points="415.5,843.3125,405.5,847.3125,415.5,851.3125,411.5,847.3125" style="stroke:#181818;stroke-width:1.0;"/><text fill="#000000" font-family="sans-serif" font-size="13" lengthAdjust="spacing" textLength="107" x="411.5" y="814.1138">Resource Linking</text><a href="ExampleScenario-example-3-scenario-resources.html#3-3-provenance" target="_top" title="ExampleScenario-example-3-scenario-resources.html#3-3-provenance" xlink:actuate="onRequest" xlink:href="ExampleScenario-example-3-scenario-resources.html#3-3-provenance" xlink:show="new" xlink:title="ExampleScenario-example-3-scenario-resources.html#3-3-provenance" xlink:type="simple"><text fill="#0000FF" font-family="sans-serif" font-size="13" lengthAdjust="spacing" text-decoration="underline" textLength="259" x="411.5" y="829.2466">Link second dispense and treatmentLine</text></a><path d="M169,869.3125 L427,869.3125 L427,876.4453 L417,886.4453 L169,886.4453 L169,869.3125 " fill="#EEEEEE" style="stroke:#000000;stroke-width:1.5;"/><rect fill="none" height="105.6641" style="stroke:#000000;stroke-width:1.5;" width="1041.5" x="169" y="869.3125"/><text fill="#000000" font-family="sans-serif" font-size="13" font-weight="bold" lengthAdjust="spacing" textLength="213" x="184" y="882.3794">Reporting and new dispense</text><polygon fill="#181818" points="228.5,918.7109,218.5,922.7109,228.5,926.7109,224.5,922.7109" style="stroke:#181818;stroke-width:1.0;"/><line style="stroke:#181818;stroke-width:1.0;" x1="222.5" x2="1158.5" y1="922.7109" y2="922.7109"/><text fill="#000000" font-family="sans-serif" font-size="13" lengthAdjust="spacing" textLength="161" x="234.5" y="902.5122">Notification of a dispense</text><text fill="#000000" font-family="sans-serif" font-size="13" lengthAdjust="spacing" textLength="4" x="234.5" y="917.645">&#160;</text><polygon fill="#181818" points="392.5,962.9766,402.5,966.9766,392.5,970.9766,396.5,966.9766" style="stroke:#181818;stroke-width:1.0;"/><line style="stroke:#181818;stroke-width:1.0;" x1="217.5" x2="398.5" y1="966.9766" y2="966.9766"/><text fill="#000000" font-family="sans-serif" font-size="13" lengthAdjust="spacing" textLength="151" x="224.5" y="946.7778">Create new prescription</text><a href="ExampleScenario-example-3-scenario-resources.html#3-2-prescription" target="_top" title="ExampleScenario-example-3-scenario-resources.html#3-2-prescription" xlink:actuate="onRequest" xlink:href="ExampleScenario-example-3-scenario-resources.html#3-2-prescription" xlink:show="new" xlink:title="ExampleScenario-example-3-scenario-resources.html#3-2-prescription" xlink:type="simple"><text fill="#0000FF" font-family="sans-serif" font-size="13" lengthAdjust="spacing" text-decoration="underline" textLength="163" x="224.5" y="961.9106">Pantoprazole Prescription</text></a><path d="M370.5,988.9766 L468.5,988.9766 L468.5,996.1094 L458.5,1006.1094 L370.5,1006.1094 L370.5,988.9766 " fill="#EEEEEE" style="stroke:#000000;stroke-width:1.5;"/><rect fill="none" height="74.3984" style="stroke:#000000;stroke-width:1.5;" width="330" x="370.5" y="988.9766"/><text fill="#000000" font-family="sans-serif" font-size="13" font-weight="bold" lengthAdjust="spacing" textLength="53" x="385.5" y="1002.0435">Linking</text><line style="stroke:#181818;stroke-width:1.0;" x1="404.5" x2="446.5" y1="1042.375" y2="1042.375"/><line style="stroke:#181818;stroke-width:1.0;" x1="446.5" x2="446.5" y1="1042.375" y2="1055.375"/><line style="stroke:#181818;stroke-width:1.0;" x1="405.5" x2="446.5" y1="1055.375" y2="1055.375"/><polygon fill="#181818" points="415.5,1051.375,405.5,1055.375,415.5,1059.375,411.5,1055.375" style="stroke:#181818;stroke-width:1.0;"/><text fill="#000000" font-family="sans-serif" font-size="13" lengthAdjust="spacing" textLength="107" x="411.5" y="1022.1763">Resource Linking</text><a href="ExampleScenario-example-3-scenario-resources.html#3-4-provenance" target="_top" title="ExampleScenario-example-3-scenario-resources.html#3-4-provenance" xlink:actuate="onRequest" xlink:href="ExampleScenario-example-3-scenario-resources.html#3-4-provenance" xlink:show="new" xlink:title="ExampleScenario-example-3-scenario-resources.html#3-4-provenance" xlink:type="simple"><text fill="#0000FF" font-family="sans-serif" font-size="13" lengthAdjust="spacing" text-decoration="underline" textLength="277" x="411.5" y="1037.3091">Link second Prescription and treatmentLine</text></a><!--SRC=[nLLDRzf04BtxLupeeIT7AlIKGoKIK1efGHQbkH0Es_L0HhLtLxlhDkclx_WJEmOKkKJbO8dzcFTsthoP5Va4OKREe788UWifnYI59wtW1swrHH20p-GygHqOYqvQClbs40ZfjOLHH08Yz6ZT28I3QBgwdIzMzUxCNi0iiqBvOlSc2eomdYGPNeBHWyYISkTX-lskkHKz2PiAoR1bpA_JvNqG0FyEVdPMPmPk5NaI2LnhvJbE45HK8Fp2k709DneTU0t264tAfwZyemeAuFqPz13n-tdleuFx9XkFQhsUFulK9FXDeXAMT8Zb_t0Ikdg94wGpAz5TFFaq-J2_Wdbg_0jSPIfESBC968IXIinBkBOeF8B2tvtS3WERXEqOhAfCz9QFIeXQwym1LTpEsoedaIS3ce0biKBb9Zq7EFlwvb32JG1OSBY627Dy4opSaS9_niw3TF6Bk8T8BAiW-O6Vx8YXs9zOAlsBTrKL2xPadUy81KB5q27PbwvsRakcmYjL8PkcaDk1tRbgkOHgfMVVI2pjIB4NusfbQABg- -rgRb1EKk3KKfAGi2ziBHrdSd2HZlSi8cvQsbZnHxVRvhgFjJbbiwBWQeSLCjjNTNN0Tlq21MxFnJFfBC_ydtuO7_53l5UpxuLtOpFfiN4eDJCuIUULt4iqsXPJCp-SjwsuCMjJjSN8MMXFstheyWWMBTUyxxmOToT6fxfFpupZTNek4JuV4-6DFJBu2m00]--></g></svg>