<?xml version="1.0" encoding="us-ascii" standalone="no"?><svg xmlns="http://www.w3.org/2000/svg" xmlns:xlink="http://www.w3.org/1999/xlink" contentStyleType="text/css" height="958px" preserveAspectRatio="none" style="width:750px;height:958px;background:#FFFFFF;" version="1.1" viewBox="0 0 750 958" width="750px" zoomAndPan="magnify"><defs/><g><text fill="#000000" font-family="sans-serif" font-size="14" font-weight="bold" lengthAdjust="spacing" textLength="642" x="55.75" y="27.9951">Dispense of medication that was prescribed to take if needed, but was not taken</text><rect fill="none" height="149.9297" style="stroke:#000000;stroke-width:1.5;" width="433.5" x="10" y="135.5938"/><rect fill="none" height="188.9297" style="stroke:#000000;stroke-width:1.5;" width="323" x="375.5" y="299.5234"/><rect fill="none" height="105.6641" style="stroke:#000000;stroke-width:1.5;" width="369" x="375.5" y="502.4531"/><rect fill="none" height="74.3984" style="stroke:#000000;stroke-width:1.5;" width="264" x="375.5" y="622.1172"/><rect fill="none" height="61.3984" style="stroke:#000000;stroke-width:1.5;" width="433.5" x="10" y="710.5156"/><rect fill="none" height="74.3984" style="stroke:#000000;stroke-width:1.5;" width="246" x="375.5" y="785.9141"/><line style="stroke:#181818;stroke-width:0.5;stroke-dasharray:5.0,5.0;" x1="57" x2="57" y1="118.5938" y2="877.3125"/><line style="stroke:#181818;stroke-width:0.5;stroke-dasharray:5.0,5.0;" x1="217" x2="217" y1="118.5938" y2="877.3125"/><line style="stroke:#181818;stroke-width:0.5;stroke-dasharray:5.0,5.0;" x1="409.5" x2="409.5" y1="118.5938" y2="877.3125"/><line style="stroke:#181818;stroke-width:0.5;stroke-dasharray:5.0,5.0;" x1="693.5" x2="693.5" y1="118.5938" y2="877.3125"/><text fill="#000000" font-family="sans-serif" font-size="14" lengthAdjust="spacing" textLength="69" x="20" y="115.292">Pia Peters</text><ellipse cx="57.5" cy="50.7969" fill="#E2E2F0" rx="8" ry="8" style="stroke:#181818;stroke-width:0.5;"/><path d="M57.5,58.7969 L57.5,85.7969 M44.5,66.7969 L70.5,66.7969 M57.5,85.7969 L44.5,100.7969 M57.5,85.7969 L70.5,100.7969 " fill="none" style="stroke:#181818;stroke-width:0.5;"/><text fill="#000000" font-family="sans-serif" font-size="14" lengthAdjust="spacing" textLength="69" x="20" y="889.3076">Pia Peters</text><ellipse cx="57.5" cy="901.1094" fill="#E2E2F0" rx="8" ry="8" style="stroke:#181818;stroke-width:0.5;"/><path d="M57.5,909.1094 L57.5,936.1094 M44.5,917.1094 L70.5,917.1094 M57.5,936.1094 L44.5,951.1094 M57.5,936.1094 L70.5,951.1094 " fill="none" style="stroke:#181818;stroke-width:0.5;"/><text fill="#000000" font-family="sans-serif" font-size="14" lengthAdjust="spacing" textLength="71" x="179" y="115.292">Dr. Durant</text><ellipse cx="217.5" cy="50.7969" fill="#E2E2F0" rx="8" ry="8" style="stroke:#181818;stroke-width:0.5;"/><path d="M217.5,58.7969 L217.5,85.7969 M204.5,66.7969 L230.5,66.7969 M217.5,85.7969 L204.5,100.7969 M217.5,85.7969 L230.5,100.7969 " fill="none" style="stroke:#181818;stroke-width:0.5;"/><text fill="#000000" font-family="sans-serif" font-size="14" lengthAdjust="spacing" textLength="71" x="179" y="889.3076">Dr. Durant</text><ellipse cx="217.5" cy="901.1094" fill="#E2E2F0" rx="8" ry="8" style="stroke:#181818;stroke-width:0.5;"/><path d="M217.5,909.1094 L217.5,936.1094 M204.5,917.1094 L230.5,917.1094 M217.5,936.1094 L204.5,951.1094 M217.5,936.1094 L230.5,951.1094 " fill="none" style="stroke:#181818;stroke-width:0.5;"/><rect fill="#E2E2F0" height="30.2969" rx="2.5" ry="2.5" style="stroke:#181818;stroke-width:0.5;" width="48" x="385.5" y="87.2969"/><text fill="#000000" font-family="sans-serif" font-size="14" lengthAdjust="spacing" textLength="34" x="392.5" y="107.292">Vault</text><rect fill="#E2E2F0" height="30.2969" rx="2.5" ry="2.5" style="stroke:#181818;stroke-width:0.5;" width="48" x="385.5" y="876.3125"/><text fill="#000000" font-family="sans-serif" font-size="14" lengthAdjust="spacing" textLength="34" x="392.5" y="896.3076">Vault</text><text fill="#000000" font-family="sans-serif" font-size="14" lengthAdjust="spacing" textLength="76" x="652.5" y="115.292">Pharmacist</text><ellipse cx="693.5" cy="50.7969" fill="#E2E2F0" rx="8" ry="8" style="stroke:#181818;stroke-width:0.5;"/><path d="M693.5,58.7969 L693.5,85.7969 M680.5,66.7969 L706.5,66.7969 M693.5,85.7969 L680.5,100.7969 M693.5,85.7969 L706.5,100.7969 " fill="none" style="stroke:#181818;stroke-width:0.5;"/><text fill="#000000" font-family="sans-serif" font-size="14" lengthAdjust="spacing" textLength="76" x="652.5" y="889.3076">Pharmacist</text><ellipse cx="693.5" cy="901.1094" fill="#E2E2F0" rx="8" ry="8" style="stroke:#181818;stroke-width:0.5;"/><path d="M693.5,909.1094 L693.5,936.1094 M680.5,917.1094 L706.5,917.1094 M693.5,936.1094 L680.5,951.1094 M693.5,936.1094 L706.5,951.1094 " fill="none" style="stroke:#181818;stroke-width:0.5;"/><path d="M10,135.5938 L155,135.5938 L155,142.7266 L145,152.7266 L10,152.7266 L10,135.5938 " fill="#EEEEEE" style="stroke:#000000;stroke-width:1.5;"/><rect fill="none" height="149.9297" style="stroke:#000000;stroke-width:1.5;" width="433.5" x="10" y="135.5938"/><text fill="#000000" font-family="sans-serif" font-size="13" font-weight="bold" lengthAdjust="spacing" textLength="100" x="25" y="148.6606">Initial contact</text><polygon fill="#181818" points="205.5,184.9922,215.5,188.9922,205.5,192.9922,209.5,188.9922" style="stroke:#181818;stroke-width:1.0;"/><line style="stroke:#181818;stroke-width:1.0;" x1="57.5" x2="211.5" y1="188.9922" y2="188.9922"/><text fill="#000000" font-family="sans-serif" font-size="13" lengthAdjust="spacing" textLength="136" x="64.5" y="168.7935">Goes to appointment</text><text fill="#000000" font-family="sans-serif" font-size="13" lengthAdjust="spacing" textLength="4" x="64.5" y="183.9263">&#160;</text><polygon fill="#181818" points="228.5,229.2578,218.5,233.2578,228.5,237.2578,224.5,233.2578" style="stroke:#181818;stroke-width:1.0;"/><line style="stroke:#181818;stroke-width:1.0;" x1="222.5" x2="408.5" y1="233.2578" y2="233.2578"/><text fill="#000000" font-family="sans-serif" font-size="13" lengthAdjust="spacing" textLength="155" x="234.5" y="213.0591">Get Patient's Medication</text><a href="ExampleScenario-example-7-scenario-resources.html#EB" target="_top" title="ExampleScenario-example-7-scenario-resources.html#EB" xlink:actuate="onRequest" xlink:href="ExampleScenario-example-7-scenario-resources.html#EB" xlink:show="new" xlink:title="ExampleScenario-example-7-scenario-resources.html#EB" xlink:type="simple"><text fill="#0000FF" font-family="sans-serif" font-size="13" lengthAdjust="spacing" text-decoration="underline" textLength="89" x="234.5" y="228.1919">Empty Bundle</text></a><polygon fill="#181818" points="397.5,273.5234,407.5,277.5234,397.5,281.5234,401.5,277.5234" style="stroke:#181818;stroke-width:1.0;"/><line style="stroke:#181818;stroke-width:1.0;" x1="217.5" x2="403.5" y1="277.5234" y2="277.5234"/><text fill="#000000" font-family="sans-serif" font-size="13" lengthAdjust="spacing" textLength="151" x="224.5" y="257.3247">Create new prescription</text><a href="ExampleScenario-example-7-scenario-resources.html#7-prescription" target="_top" title="ExampleScenario-example-7-scenario-resources.html#7-prescription" xlink:actuate="onRequest" xlink:href="ExampleScenario-example-7-scenario-resources.html#7-prescription" xlink:show="new" xlink:title="ExampleScenario-example-7-scenario-resources.html#7-prescription" xlink:type="simple"><text fill="#0000FF" font-family="sans-serif" font-size="13" lengthAdjust="spacing" text-decoration="underline" textLength="168" x="224.5" y="272.4575">Ciprofloxacine prescription</text></a><path d="M375.5,299.5234 L640.5,299.5234 L640.5,306.6563 L630.5,316.6563 L375.5,316.6563 L375.5,299.5234 " fill="#EEEEEE" style="stroke:#000000;stroke-width:1.5;"/><rect fill="none" height="188.9297" style="stroke:#000000;stroke-width:1.5;" width="323" x="375.5" y="299.5234"/><text fill="#000000" font-family="sans-serif" font-size="13" font-weight="bold" lengthAdjust="spacing" textLength="220" x="390.5" y="312.5903">Treatment resources Creation</text><line style="stroke:#181818;stroke-width:1.0;" x1="409.5" x2="451.5" y1="352.9219" y2="352.9219"/><line style="stroke:#181818;stroke-width:1.0;" x1="451.5" x2="451.5" y1="352.9219" y2="365.9219"/><line style="stroke:#181818;stroke-width:1.0;" x1="410.5" x2="451.5" y1="365.9219" y2="365.9219"/><polygon fill="#181818" points="420.5,361.9219,410.5,365.9219,420.5,369.9219,416.5,365.9219" style="stroke:#181818;stroke-width:1.0;"/><text fill="#000000" font-family="sans-serif" font-size="13" lengthAdjust="spacing" textLength="141" x="416.5" y="332.7231">Create new treatment</text><a href="ExampleScenario-example-7-scenario-resources.html#7-treatment" target="_top" title="ExampleScenario-example-7-scenario-resources.html#7-treatment" xlink:actuate="onRequest" xlink:href="ExampleScenario-example-7-scenario-resources.html#7-treatment" xlink:show="new" xlink:title="ExampleScenario-example-7-scenario-resources.html#7-treatment" xlink:type="simple"><text fill="#0000FF" font-family="sans-serif" font-size="13" lengthAdjust="spacing" text-decoration="underline" textLength="240" x="416.5" y="347.856">New Treatment based on prescription</text></a><line style="stroke:#181818;stroke-width:1.0;" x1="409.5" x2="451.5" y1="410.1875" y2="410.1875"/><line style="stroke:#181818;stroke-width:1.0;" x1="451.5" x2="451.5" y1="410.1875" y2="423.1875"/><line style="stroke:#181818;stroke-width:1.0;" x1="410.5" x2="451.5" y1="423.1875" y2="423.1875"/><polygon fill="#181818" points="420.5,419.1875,410.5,423.1875,420.5,427.1875,416.5,423.1875" style="stroke:#181818;stroke-width:1.0;"/><text fill="#000000" font-family="sans-serif" font-size="13" lengthAdjust="spacing" textLength="171" x="416.5" y="389.9888">Create new treatment Line</text><a href="ExampleScenario-example-7-scenario-resources.html#7-treatmentLine" target="_top" title="ExampleScenario-example-7-scenario-resources.html#7-treatmentLine" xlink:actuate="onRequest" xlink:href="ExampleScenario-example-7-scenario-resources.html#7-treatmentLine" xlink:show="new" xlink:title="ExampleScenario-example-7-scenario-resources.html#7-treatmentLine" xlink:type="simple"><text fill="#0000FF" font-family="sans-serif" font-size="13" lengthAdjust="spacing" text-decoration="underline" textLength="270" x="416.5" y="405.1216">New Treatment Line based on prescription</text></a><line style="stroke:#181818;stroke-width:1.0;" x1="409.5" x2="451.5" y1="467.4531" y2="467.4531"/><line style="stroke:#181818;stroke-width:1.0;" x1="451.5" x2="451.5" y1="467.4531" y2="480.4531"/><line style="stroke:#181818;stroke-width:1.0;" x1="410.5" x2="451.5" y1="480.4531" y2="480.4531"/><polygon fill="#181818" points="420.5,476.4531,410.5,480.4531,420.5,484.4531,416.5,480.4531" style="stroke:#181818;stroke-width:1.0;"/><text fill="#000000" font-family="sans-serif" font-size="13" lengthAdjust="spacing" textLength="107" x="416.5" y="447.2544">Resource Linking</text><a href="ExampleScenario-example-7-scenario-resources.html#7-1-provenance" target="_top" title="ExampleScenario-example-7-scenario-resources.html#7-1-provenance" xlink:actuate="onRequest" xlink:href="ExampleScenario-example-7-scenario-resources.html#7-1-provenance" xlink:show="new" xlink:title="ExampleScenario-example-7-scenario-resources.html#7-1-provenance" xlink:type="simple"><text fill="#0000FF" font-family="sans-serif" font-size="13" lengthAdjust="spacing" text-decoration="underline" textLength="227" x="416.5" y="462.3872">Link Prescription and treatmentLine</text></a><path d="M375.5,502.4531 L488.5,502.4531 L488.5,509.5859 L478.5,519.5859 L375.5,519.5859 L375.5,502.4531 " fill="#EEEEEE" style="stroke:#000000;stroke-width:1.5;"/><rect fill="none" height="105.6641" style="stroke:#000000;stroke-width:1.5;" width="369" x="375.5" y="502.4531"/><text fill="#000000" font-family="sans-serif" font-size="13" font-weight="bold" lengthAdjust="spacing" textLength="68" x="390.5" y="515.52">Dispense</text><polygon fill="#181818" points="681.5,551.8516,691.5,555.8516,681.5,559.8516,685.5,555.8516" style="stroke:#181818;stroke-width:1.0;"/><line style="stroke:#181818;stroke-width:1.0;" x1="409.5" x2="687.5" y1="555.8516" y2="555.8516"/><text fill="#000000" font-family="sans-serif" font-size="13" lengthAdjust="spacing" textLength="168" x="416.5" y="535.6528">Get patient's Prescriptions</text><a href="ExampleScenario-example-7-scenario-resources.html#EB" target="_top" title="ExampleScenario-example-7-scenario-resources.html#EB" xlink:actuate="onRequest" xlink:href="ExampleScenario-example-7-scenario-resources.html#EB" xlink:show="new" xlink:title="ExampleScenario-example-7-scenario-resources.html#EB" xlink:type="simple"><text fill="#0000FF" font-family="sans-serif" font-size="13" lengthAdjust="spacing" text-decoration="underline" textLength="89" x="416.5" y="550.7856">Empty Bundle</text></a><polygon fill="#181818" points="420.5,596.1172,410.5,600.1172,420.5,604.1172,416.5,600.1172" style="stroke:#181818;stroke-width:1.0;"/><line style="stroke:#181818;stroke-width:1.0;" x1="414.5" x2="692.5" y1="600.1172" y2="600.1172"/><text fill="#000000" font-family="sans-serif" font-size="13" lengthAdjust="spacing" textLength="59" x="426.5" y="579.9185">Dispense</text><a href="ExampleScenario-example-7-scenario-resources.html#7-dispense" target="_top" title="ExampleScenario-example-7-scenario-resources.html#7-dispense" xlink:actuate="onRequest" xlink:href="ExampleScenario-example-7-scenario-resources.html#7-dispense" xlink:show="new" xlink:title="ExampleScenario-example-7-scenario-resources.html#7-dispense" xlink:type="simple"><text fill="#0000FF" font-family="sans-serif" font-size="13" lengthAdjust="spacing" text-decoration="underline" textLength="152" x="426.5" y="595.0513">Ciprofloxacine Dispense</text></a><path d="M375.5,622.1172 L546.5,622.1172 L546.5,629.25 L536.5,639.25 L375.5,639.25 L375.5,622.1172 " fill="#EEEEEE" style="stroke:#000000;stroke-width:1.5;"/><rect fill="none" height="74.3984" style="stroke:#000000;stroke-width:1.5;" width="264" x="375.5" y="622.1172"/><text fill="#000000" font-family="sans-serif" font-size="13" font-weight="bold" lengthAdjust="spacing" textLength="126" x="390.5" y="635.1841">Resource Linking</text><line style="stroke:#181818;stroke-width:1.0;" x1="409.5" x2="451.5" y1="675.5156" y2="675.5156"/><line style="stroke:#181818;stroke-width:1.0;" x1="451.5" x2="451.5" y1="675.5156" y2="688.5156"/><line style="stroke:#181818;stroke-width:1.0;" x1="410.5" x2="451.5" y1="688.5156" y2="688.5156"/><polygon fill="#181818" points="420.5,684.5156,410.5,688.5156,420.5,692.5156,416.5,688.5156" style="stroke:#181818;stroke-width:1.0;"/><text fill="#000000" font-family="sans-serif" font-size="13" lengthAdjust="spacing" textLength="107" x="416.5" y="655.3169">Resource Linking</text><a href="ExampleScenario-example-7-scenario-resources.html#7-2-provenance" target="_top" title="ExampleScenario-example-7-scenario-resources.html#7-2-provenance" xlink:actuate="onRequest" xlink:href="ExampleScenario-example-7-scenario-resources.html#7-2-provenance" xlink:show="new" xlink:title="ExampleScenario-example-7-scenario-resources.html#7-2-provenance" xlink:type="simple"><text fill="#0000FF" font-family="sans-serif" font-size="13" lengthAdjust="spacing" text-decoration="underline" textLength="211" x="416.5" y="670.4497">Link Dispense and treatmentLine</text></a><path d="M10,710.5156 L105,710.5156 L105,717.6484 L95,727.6484 L10,727.6484 L10,710.5156 " fill="#EEEEEE" style="stroke:#000000;stroke-width:1.5;"/><rect fill="none" height="61.3984" style="stroke:#000000;stroke-width:1.5;" width="433.5" x="10" y="710.5156"/><text fill="#000000" font-family="sans-serif" font-size="13" font-weight="bold" lengthAdjust="spacing" textLength="50" x="25" y="723.5825">Report</text><polygon fill="#181818" points="397.5,759.9141,407.5,763.9141,397.5,767.9141,401.5,763.9141" style="stroke:#181818;stroke-width:1.0;"/><line style="stroke:#181818;stroke-width:1.0;" x1="57.5" x2="403.5" y1="763.9141" y2="763.9141"/><text fill="#000000" font-family="sans-serif" font-size="13" lengthAdjust="spacing" textLength="175" x="64.5" y="743.7153">Usage Report of non-usage</text><a href="ExampleScenario-example-7-scenario-resources.html#7-usage" target="_top" title="ExampleScenario-example-7-scenario-resources.html#7-usage" xlink:actuate="onRequest" xlink:href="ExampleScenario-example-7-scenario-resources.html#7-usage" xlink:show="new" xlink:title="ExampleScenario-example-7-scenario-resources.html#7-usage" xlink:type="simple"><text fill="#0000FF" font-family="sans-serif" font-size="13" lengthAdjust="spacing" text-decoration="underline" textLength="177" x="64.5" y="758.8481">Ciprofloxacine Usage report</text></a><path d="M375.5,785.9141 L546.5,785.9141 L546.5,793.0469 L536.5,803.0469 L375.5,803.0469 L375.5,785.9141 " fill="#EEEEEE" style="stroke:#000000;stroke-width:1.5;"/><rect fill="none" height="74.3984" style="stroke:#000000;stroke-width:1.5;" width="246" x="375.5" y="785.9141"/><text fill="#000000" font-family="sans-serif" font-size="13" font-weight="bold" lengthAdjust="spacing" textLength="126" x="390.5" y="798.981">Resource Linking</text><line style="stroke:#181818;stroke-width:1.0;" x1="409.5" x2="451.5" y1="839.3125" y2="839.3125"/><line style="stroke:#181818;stroke-width:1.0;" x1="451.5" x2="451.5" y1="839.3125" y2="852.3125"/><line style="stroke:#181818;stroke-width:1.0;" x1="410.5" x2="451.5" y1="852.3125" y2="852.3125"/><polygon fill="#181818" points="420.5,848.3125,410.5,852.3125,420.5,856.3125,416.5,852.3125" style="stroke:#181818;stroke-width:1.0;"/><text fill="#000000" font-family="sans-serif" font-size="13" lengthAdjust="spacing" textLength="107" x="416.5" y="819.1138">Resource Linking</text><a href="ExampleScenario-example-7-scenario-resources.html#7-3-provenance" target="_top" title="ExampleScenario-example-7-scenario-resources.html#7-3-provenance" xlink:actuate="onRequest" xlink:href="ExampleScenario-example-7-scenario-resources.html#7-3-provenance" xlink:show="new" xlink:title="ExampleScenario-example-7-scenario-resources.html#7-3-provenance" xlink:type="simple"><text fill="#0000FF" font-family="sans-serif" font-size="13" lengthAdjust="spacing" text-decoration="underline" textLength="193" x="416.5" y="834.2466">Link Usage and treatmentLine</text></a><!--SRC=[nPHDRzim38Rl-XL4TjXbBh3jKA270MaJT0NQmiZINjeU59j9XDgK8D5hz-z7VyPnMY3mDim70nQfbuzUqbeQpX1c9ZYaW63Na6Dg4it64l1MCxpe0CvZIBnPOGfiWVKpWba38QQOVe9LKMUHvIf6Ikc4hOT9R3J4oEZ312GXdYwlvhVBDZhp9p0hl2QkefUnSjgpIOoJ9PZSwoAh8_VJk-jkLxpLFjU92NKi_ZvTt2W5yhpvsdXREBWYmqPda5XYqL6gGO7eczI5CxYq6CgpQUUi8SwH-95KLNYNWmonE2EnZm5kEfyUwU5X_gfpb-6F14bxOoEilwFJABHBug4jV8BXPCjvzc5-3lFSyIyuBoZDyEb9IH4fLTSyWmkFcb5CVcdjT-EBdKPz3RWmpjjrPb_5Hy8zVU50IllUBKkGqX3eH6iuoLOxYzxWvdRdMEXE06v5RWUoqa56KGuo83yA1gxbp7zCL8eCgAgbez4MZNIvxTdGPYpHPscj_IbHQhGWxhTQKmfxq8SDRl_-NZEhlwePUTUDV5yu_AsfhqlrZ6bnnXgIjfVPOCfRtKC3XgrG_wvRNmwwrTszHtHgWSxw_Tkh1RmBUeDDGdcDawMeADV6abQRXnxMLNnLvR_w-FN0nnhjVHFLRm00]--></g></svg>