<?xml version="1.0" encoding="us-ascii" standalone="no"?><svg xmlns="http://www.w3.org/2000/svg" xmlns:xlink="http://www.w3.org/1999/xlink" contentStyleType="text/css" height="794px" preserveAspectRatio="none" style="width:737px;height:794px;background:#FFFFFF;" version="1.1" viewBox="0 0 737 794" width="737px" zoomAndPan="magnify"><defs/><g><text fill="#000000" font-family="sans-serif" font-size="14" font-weight="bold" lengthAdjust="spacing" textLength="345" x="197.75" y="27.9951">Refuse the dispense prescribed medication</text><rect fill="none" height="149.9297" style="stroke:#000000;stroke-width:1.5;" width="420.5" x="10" y="135.5938"/><rect fill="none" height="188.9297" style="stroke:#000000;stroke-width:1.5;" width="323" x="362.5" y="299.5234"/><rect fill="none" height="105.6641" style="stroke:#000000;stroke-width:1.5;" width="369" x="362.5" y="502.4531"/><rect fill="none" height="74.3984" style="stroke:#000000;stroke-width:1.5;" width="314" x="362.5" y="622.1172"/><line style="stroke:#181818;stroke-width:0.5;stroke-dasharray:5.0,5.0;" x1="57" x2="57" y1="118.5938" y2="713.5156"/><line style="stroke:#181818;stroke-width:0.5;stroke-dasharray:5.0,5.0;" x1="217" x2="217" y1="118.5938" y2="713.5156"/><line style="stroke:#181818;stroke-width:0.5;stroke-dasharray:5.0,5.0;" x1="396.5" x2="396.5" y1="118.5938" y2="713.5156"/><line style="stroke:#181818;stroke-width:0.5;stroke-dasharray:5.0,5.0;" x1="680.5" x2="680.5" y1="118.5938" y2="713.5156"/><text fill="#000000" font-family="sans-serif" font-size="14" lengthAdjust="spacing" textLength="69" x="20" y="115.292">Pia Peters</text><ellipse cx="57.5" cy="50.7969" fill="#E2E2F0" rx="8" ry="8" style="stroke:#181818;stroke-width:0.5;"/><path d="M57.5,58.7969 L57.5,85.7969 M44.5,66.7969 L70.5,66.7969 M57.5,85.7969 L44.5,100.7969 M57.5,85.7969 L70.5,100.7969 " fill="none" style="stroke:#181818;stroke-width:0.5;"/><text fill="#000000" font-family="sans-serif" font-size="14" lengthAdjust="spacing" textLength="69" x="20" y="725.5107">Pia Peters</text><ellipse cx="57.5" cy="737.3125" fill="#E2E2F0" rx="8" ry="8" style="stroke:#181818;stroke-width:0.5;"/><path d="M57.5,745.3125 L57.5,772.3125 M44.5,753.3125 L70.5,753.3125 M57.5,772.3125 L44.5,787.3125 M57.5,772.3125 L70.5,787.3125 " fill="none" style="stroke:#181818;stroke-width:0.5;"/><text fill="#000000" font-family="sans-serif" font-size="14" lengthAdjust="spacing" textLength="71" x="179" y="115.292">Dr. Durant</text><ellipse cx="217.5" cy="50.7969" fill="#E2E2F0" rx="8" ry="8" style="stroke:#181818;stroke-width:0.5;"/><path d="M217.5,58.7969 L217.5,85.7969 M204.5,66.7969 L230.5,66.7969 M217.5,85.7969 L204.5,100.7969 M217.5,85.7969 L230.5,100.7969 " fill="none" style="stroke:#181818;stroke-width:0.5;"/><text fill="#000000" font-family="sans-serif" font-size="14" lengthAdjust="spacing" textLength="71" x="179" y="725.5107">Dr. Durant</text><ellipse cx="217.5" cy="737.3125" fill="#E2E2F0" rx="8" ry="8" style="stroke:#181818;stroke-width:0.5;"/><path d="M217.5,745.3125 L217.5,772.3125 M204.5,753.3125 L230.5,753.3125 M217.5,772.3125 L204.5,787.3125 M217.5,772.3125 L230.5,787.3125 " fill="none" style="stroke:#181818;stroke-width:0.5;"/><rect fill="#E2E2F0" height="30.2969" rx="2.5" ry="2.5" style="stroke:#181818;stroke-width:0.5;" width="48" x="372.5" y="87.2969"/><text fill="#000000" font-family="sans-serif" font-size="14" lengthAdjust="spacing" textLength="34" x="379.5" y="107.292">Vault</text><rect fill="#E2E2F0" height="30.2969" rx="2.5" ry="2.5" style="stroke:#181818;stroke-width:0.5;" width="48" x="372.5" y="712.5156"/><text fill="#000000" font-family="sans-serif" font-size="14" lengthAdjust="spacing" textLength="34" x="379.5" y="732.5107">Vault</text><text fill="#000000" font-family="sans-serif" font-size="14" lengthAdjust="spacing" textLength="76" x="639.5" y="115.292">Pharmacist</text><ellipse cx="680.5" cy="50.7969" fill="#E2E2F0" rx="8" ry="8" style="stroke:#181818;stroke-width:0.5;"/><path d="M680.5,58.7969 L680.5,85.7969 M667.5,66.7969 L693.5,66.7969 M680.5,85.7969 L667.5,100.7969 M680.5,85.7969 L693.5,100.7969 " fill="none" style="stroke:#181818;stroke-width:0.5;"/><text fill="#000000" font-family="sans-serif" font-size="14" lengthAdjust="spacing" textLength="76" x="639.5" y="725.5107">Pharmacist</text><ellipse cx="680.5" cy="737.3125" fill="#E2E2F0" rx="8" ry="8" style="stroke:#181818;stroke-width:0.5;"/><path d="M680.5,745.3125 L680.5,772.3125 M667.5,753.3125 L693.5,753.3125 M680.5,772.3125 L667.5,787.3125 M680.5,772.3125 L693.5,787.3125 " fill="none" style="stroke:#181818;stroke-width:0.5;"/><path d="M10,135.5938 L155,135.5938 L155,142.7266 L145,152.7266 L10,152.7266 L10,135.5938 " fill="#EEEEEE" style="stroke:#000000;stroke-width:1.5;"/><rect fill="none" height="149.9297" style="stroke:#000000;stroke-width:1.5;" width="420.5" x="10" y="135.5938"/><text fill="#000000" font-family="sans-serif" font-size="13" font-weight="bold" lengthAdjust="spacing" textLength="100" x="25" y="148.6606">Initial contact</text><polygon fill="#181818" points="205.5,184.9922,215.5,188.9922,205.5,192.9922,209.5,188.9922" style="stroke:#181818;stroke-width:1.0;"/><line style="stroke:#181818;stroke-width:1.0;" x1="57.5" x2="211.5" y1="188.9922" y2="188.9922"/><text fill="#000000" font-family="sans-serif" font-size="13" lengthAdjust="spacing" textLength="136" x="64.5" y="168.7935">Goes to appointment</text><text fill="#000000" font-family="sans-serif" font-size="13" lengthAdjust="spacing" textLength="4" x="64.5" y="183.9263">&#160;</text><polygon fill="#181818" points="228.5,229.2578,218.5,233.2578,228.5,237.2578,224.5,233.2578" style="stroke:#181818;stroke-width:1.0;"/><line style="stroke:#181818;stroke-width:1.0;" x1="222.5" x2="395.5" y1="233.2578" y2="233.2578"/><text fill="#000000" font-family="sans-serif" font-size="13" lengthAdjust="spacing" textLength="155" x="234.5" y="213.0591">Get Patient's Medication</text><a href="ExampleScenario-example-6-scenario-resources.html#EB" target="_top" title="ExampleScenario-example-6-scenario-resources.html#EB" xlink:actuate="onRequest" xlink:href="ExampleScenario-example-6-scenario-resources.html#EB" xlink:show="new" xlink:title="ExampleScenario-example-6-scenario-resources.html#EB" xlink:type="simple"><text fill="#0000FF" font-family="sans-serif" font-size="13" lengthAdjust="spacing" text-decoration="underline" textLength="89" x="234.5" y="228.1919">Empty Bundle</text></a><polygon fill="#181818" points="384.5,273.5234,394.5,277.5234,384.5,281.5234,388.5,277.5234" style="stroke:#181818;stroke-width:1.0;"/><line style="stroke:#181818;stroke-width:1.0;" x1="217.5" x2="390.5" y1="277.5234" y2="277.5234"/><text fill="#000000" font-family="sans-serif" font-size="13" lengthAdjust="spacing" textLength="151" x="224.5" y="257.3247">Create new prescription</text><a href="ExampleScenario-example-6-scenario-resources.html#6-prescription" target="_top" title="ExampleScenario-example-6-scenario-resources.html#6-prescription" xlink:actuate="onRequest" xlink:href="ExampleScenario-example-6-scenario-resources.html#6-prescription" xlink:show="new" xlink:title="ExampleScenario-example-6-scenario-resources.html#6-prescription" xlink:type="simple"><text fill="#0000FF" font-family="sans-serif" font-size="13" lengthAdjust="spacing" text-decoration="underline" textLength="139" x="224.5" y="272.4575">ibuprofen prescription</text></a><path d="M362.5,299.5234 L627.5,299.5234 L627.5,306.6563 L617.5,316.6563 L362.5,316.6563 L362.5,299.5234 " fill="#EEEEEE" style="stroke:#000000;stroke-width:1.5;"/><rect fill="none" height="188.9297" style="stroke:#000000;stroke-width:1.5;" width="323" x="362.5" y="299.5234"/><text fill="#000000" font-family="sans-serif" font-size="13" font-weight="bold" lengthAdjust="spacing" textLength="220" x="377.5" y="312.5903">Treatment resources Creation</text><line style="stroke:#181818;stroke-width:1.0;" x1="396.5" x2="438.5" y1="352.9219" y2="352.9219"/><line style="stroke:#181818;stroke-width:1.0;" x1="438.5" x2="438.5" y1="352.9219" y2="365.9219"/><line style="stroke:#181818;stroke-width:1.0;" x1="397.5" x2="438.5" y1="365.9219" y2="365.9219"/><polygon fill="#181818" points="407.5,361.9219,397.5,365.9219,407.5,369.9219,403.5,365.9219" style="stroke:#181818;stroke-width:1.0;"/><text fill="#000000" font-family="sans-serif" font-size="13" lengthAdjust="spacing" textLength="141" x="403.5" y="332.7231">Create new treatment</text><a href="ExampleScenario-example-6-scenario-resources.html#6-treatment" target="_top" title="ExampleScenario-example-6-scenario-resources.html#6-treatment" xlink:actuate="onRequest" xlink:href="ExampleScenario-example-6-scenario-resources.html#6-treatment" xlink:show="new" xlink:title="ExampleScenario-example-6-scenario-resources.html#6-treatment" xlink:type="simple"><text fill="#0000FF" font-family="sans-serif" font-size="13" lengthAdjust="spacing" text-decoration="underline" textLength="240" x="403.5" y="347.856">New Treatment based on prescription</text></a><line style="stroke:#181818;stroke-width:1.0;" x1="396.5" x2="438.5" y1="410.1875" y2="410.1875"/><line style="stroke:#181818;stroke-width:1.0;" x1="438.5" x2="438.5" y1="410.1875" y2="423.1875"/><line style="stroke:#181818;stroke-width:1.0;" x1="397.5" x2="438.5" y1="423.1875" y2="423.1875"/><polygon fill="#181818" points="407.5,419.1875,397.5,423.1875,407.5,427.1875,403.5,423.1875" style="stroke:#181818;stroke-width:1.0;"/><text fill="#000000" font-family="sans-serif" font-size="13" lengthAdjust="spacing" textLength="171" x="403.5" y="389.9888">Create new treatment Line</text><a href="ExampleScenario-example-6-scenario-resources.html#6-treatmentLine" target="_top" title="ExampleScenario-example-6-scenario-resources.html#6-treatmentLine" xlink:actuate="onRequest" xlink:href="ExampleScenario-example-6-scenario-resources.html#6-treatmentLine" xlink:show="new" xlink:title="ExampleScenario-example-6-scenario-resources.html#6-treatmentLine" xlink:type="simple"><text fill="#0000FF" font-family="sans-serif" font-size="13" lengthAdjust="spacing" text-decoration="underline" textLength="270" x="403.5" y="405.1216">New Treatment Line based on prescription</text></a><line style="stroke:#181818;stroke-width:1.0;" x1="396.5" x2="438.5" y1="467.4531" y2="467.4531"/><line style="stroke:#181818;stroke-width:1.0;" x1="438.5" x2="438.5" y1="467.4531" y2="480.4531"/><line style="stroke:#181818;stroke-width:1.0;" x1="397.5" x2="438.5" y1="480.4531" y2="480.4531"/><polygon fill="#181818" points="407.5,476.4531,397.5,480.4531,407.5,484.4531,403.5,480.4531" style="stroke:#181818;stroke-width:1.0;"/><text fill="#000000" font-family="sans-serif" font-size="13" lengthAdjust="spacing" textLength="107" x="403.5" y="447.2544">Resource Linking</text><a href="ExampleScenario-example-6-scenario-resources.html#6-provenance" target="_top" title="ExampleScenario-example-6-scenario-resources.html#6-provenance" xlink:actuate="onRequest" xlink:href="ExampleScenario-example-6-scenario-resources.html#6-provenance" xlink:show="new" xlink:title="ExampleScenario-example-6-scenario-resources.html#6-provenance" xlink:type="simple"><text fill="#0000FF" font-family="sans-serif" font-size="13" lengthAdjust="spacing" text-decoration="underline" textLength="227" x="403.5" y="462.3872">Link Prescription and treatmentLine</text></a><path d="M362.5,502.4531 L475.5,502.4531 L475.5,509.5859 L465.5,519.5859 L362.5,519.5859 L362.5,502.4531 " fill="#EEEEEE" style="stroke:#000000;stroke-width:1.5;"/><rect fill="none" height="105.6641" style="stroke:#000000;stroke-width:1.5;" width="369" x="362.5" y="502.4531"/><text fill="#000000" font-family="sans-serif" font-size="13" font-weight="bold" lengthAdjust="spacing" textLength="68" x="377.5" y="515.52">Dispense</text><polygon fill="#181818" points="668.5,551.8516,678.5,555.8516,668.5,559.8516,672.5,555.8516" style="stroke:#181818;stroke-width:1.0;"/><line style="stroke:#181818;stroke-width:1.0;" x1="396.5" x2="674.5" y1="555.8516" y2="555.8516"/><text fill="#000000" font-family="sans-serif" font-size="13" lengthAdjust="spacing" textLength="168" x="403.5" y="535.6528">Get patient's Prescriptions</text><a href="ExampleScenario-example-6-scenario-resources.html#EB" target="_top" title="ExampleScenario-example-6-scenario-resources.html#EB" xlink:actuate="onRequest" xlink:href="ExampleScenario-example-6-scenario-resources.html#EB" xlink:show="new" xlink:title="ExampleScenario-example-6-scenario-resources.html#EB" xlink:type="simple"><text fill="#0000FF" font-family="sans-serif" font-size="13" lengthAdjust="spacing" text-decoration="underline" textLength="89" x="403.5" y="550.7856">Empty Bundle</text></a><polygon fill="#181818" points="407.5,596.1172,397.5,600.1172,407.5,604.1172,403.5,600.1172" style="stroke:#181818;stroke-width:1.0;"/><line style="stroke:#181818;stroke-width:1.0;" x1="401.5" x2="679.5" y1="600.1172" y2="600.1172"/><text fill="#000000" font-family="sans-serif" font-size="13" lengthAdjust="spacing" textLength="106" x="413.5" y="579.9185">Refuse Dispense</text><a href="ExampleScenario-example-6-scenario-resources.html#6-dispense" target="_top" title="ExampleScenario-example-6-scenario-resources.html#6-dispense" xlink:actuate="onRequest" xlink:href="ExampleScenario-example-6-scenario-resources.html#6-dispense" xlink:show="new" xlink:title="ExampleScenario-example-6-scenario-resources.html#6-dispense" xlink:type="simple"><text fill="#0000FF" font-family="sans-serif" font-size="13" lengthAdjust="spacing" text-decoration="underline" textLength="114" x="413.5" y="595.0513">Refused Dispense</text></a><path d="M362.5,622.1172 L533.5,622.1172 L533.5,629.25 L523.5,639.25 L362.5,639.25 L362.5,622.1172 " fill="#EEEEEE" style="stroke:#000000;stroke-width:1.5;"/><rect fill="none" height="74.3984" style="stroke:#000000;stroke-width:1.5;" width="314" x="362.5" y="622.1172"/><text fill="#000000" font-family="sans-serif" font-size="13" font-weight="bold" lengthAdjust="spacing" textLength="126" x="377.5" y="635.1841">Resource Linking</text><line style="stroke:#181818;stroke-width:1.0;" x1="396.5" x2="438.5" y1="675.5156" y2="675.5156"/><line style="stroke:#181818;stroke-width:1.0;" x1="438.5" x2="438.5" y1="675.5156" y2="688.5156"/><line style="stroke:#181818;stroke-width:1.0;" x1="397.5" x2="438.5" y1="688.5156" y2="688.5156"/><polygon fill="#181818" points="407.5,684.5156,397.5,688.5156,407.5,692.5156,403.5,688.5156" style="stroke:#181818;stroke-width:1.0;"/><text fill="#000000" font-family="sans-serif" font-size="13" lengthAdjust="spacing" textLength="107" x="403.5" y="655.3169">Resource Linking</text><a href="ExampleScenario-example-6-scenario-resources.html#6-2-provenance" target="_top" title="ExampleScenario-example-6-scenario-resources.html#6-2-provenance" xlink:actuate="onRequest" xlink:href="ExampleScenario-example-6-scenario-resources.html#6-2-provenance" xlink:show="new" xlink:title="ExampleScenario-example-6-scenario-resources.html#6-2-provenance" xlink:type="simple"><text fill="#0000FF" font-family="sans-serif" font-size="13" lengthAdjust="spacing" text-decoration="underline" textLength="261" x="403.5" y="670.4497">Link refused dispense and treatmentLine</text></a><!--SRC=[jPGzJyCm48Pt_ufJ6PZIWO6X0r9BAq0gA2gbIzl1JQxK8ZbRzeMFVu-R3pTjGK85CaIoBtxlyViwdYhE42QuBXm2Rn1IvGoI7nYBBh5gXIdacAf4ij8aX4nOM-Z4IaACZDPrG3g8-zExqSEqgGvj5uQ5bSHbzIOMHbfMYJ9-2ZepMMHLPTP_6eTLyKRQN2RALRNujZ-v5mByy-NhsUh2m1qfLZA3H1Dx7I5g58YkV5_emOr61wn16gCLSOx42n9buzqto13x3VhQkOFxiDq5pUUZTvcR31yJ96cLZh0QHvUHQwQyKxgm2RhkXlFiR3I0KMxu0mO5fHakby8tyQsgdZsujYWPWV2jCTcStkmoQck0MXN6wZNIdhH7G4hRjast35il8EXLN6N8mPqlaBbPUIfl4807BxS3MKddpve-8lyH38mLuQ-9jY87LENKZz4cjVHssOkYvzCprQ- -HhKInEsC9QMmXtmSxx3-YrjHbhzJVTPDEEjjOVTNnxrgjMTBURyqLAUw4kwcIYyDWiS670OX_Y-hYwEqR8qNUBzFJ7m2]--></g></svg>