<?xml version="1.0" encoding="us-ascii" standalone="no"?><svg xmlns="http://www.w3.org/2000/svg" xmlns:xlink="http://www.w3.org/1999/xlink" contentStyleType="text/css" height="1002px" preserveAspectRatio="none" style="width:751px;height:1002px;background:#FFFFFF;" version="1.1" viewBox="0 0 751 1002" width="751px" zoomAndPan="magnify"><defs/><g><text fill="#000000" font-family="sans-serif" font-size="14" font-weight="bold" lengthAdjust="spacing" textLength="452" x="151.25" y="27.9951">Dispense of OTC medication on the community pharmacy</text><rect fill="none" height="105.6641" style="stroke:#000000;stroke-width:1.5;" width="413.5" x="10" y="135.5938"/><rect fill="none" height="61.3984" style="stroke:#000000;stroke-width:1.5;" width="275" x="148.5" y="255.2578"/><rect fill="none" height="188.9297" style="stroke:#000000;stroke-width:1.5;" width="369" x="355.5" y="330.6563"/><rect fill="none" height="61.3984" style="stroke:#000000;stroke-width:1.5;" width="275" x="148.5" y="533.5859"/><rect fill="none" height="131.6641" style="stroke:#000000;stroke-width:1.5;" width="390" x="355.5" y="608.9844"/><rect fill="none" height="61.3984" style="stroke:#000000;stroke-width:1.5;" width="275" x="148.5" y="754.6484"/><rect fill="none" height="74.3984" style="stroke:#000000;stroke-width:1.5;" width="376" x="355.5" y="830.0469"/><line style="stroke:#181818;stroke-width:0.5;stroke-dasharray:5.0,5.0;" x1="57" x2="57" y1="118.5938" y2="921.4453"/><line style="stroke:#181818;stroke-width:0.5;stroke-dasharray:5.0,5.0;" x1="199.5" x2="199.5" y1="118.5938" y2="921.4453"/><line style="stroke:#181818;stroke-width:0.5;stroke-dasharray:5.0,5.0;" x1="389.5" x2="389.5" y1="118.5938" y2="921.4453"/><text fill="#000000" font-family="sans-serif" font-size="14" lengthAdjust="spacing" textLength="69" x="20" y="115.292">Pia Peters</text><ellipse cx="57.5" cy="50.7969" fill="#E2E2F0" rx="8" ry="8" style="stroke:#181818;stroke-width:0.5;"/><path d="M57.5,58.7969 L57.5,85.7969 M44.5,66.7969 L70.5,66.7969 M57.5,85.7969 L44.5,100.7969 M57.5,85.7969 L70.5,100.7969 " fill="none" style="stroke:#181818;stroke-width:0.5;"/><text fill="#000000" font-family="sans-serif" font-size="14" lengthAdjust="spacing" textLength="69" x="20" y="933.4404">Pia Peters</text><ellipse cx="57.5" cy="945.2422" fill="#E2E2F0" rx="8" ry="8" style="stroke:#181818;stroke-width:0.5;"/><path d="M57.5,953.2422 L57.5,980.2422 M44.5,961.2422 L70.5,961.2422 M57.5,980.2422 L44.5,995.2422 M57.5,980.2422 L70.5,995.2422 " fill="none" style="stroke:#181818;stroke-width:0.5;"/><text fill="#000000" font-family="sans-serif" font-size="14" lengthAdjust="spacing" textLength="76" x="158.5" y="115.292">Pharmacist</text><ellipse cx="199.5" cy="50.7969" fill="#E2E2F0" rx="8" ry="8" style="stroke:#181818;stroke-width:0.5;"/><path d="M199.5,58.7969 L199.5,85.7969 M186.5,66.7969 L212.5,66.7969 M199.5,85.7969 L186.5,100.7969 M199.5,85.7969 L212.5,100.7969 " fill="none" style="stroke:#181818;stroke-width:0.5;"/><text fill="#000000" font-family="sans-serif" font-size="14" lengthAdjust="spacing" textLength="76" x="158.5" y="933.4404">Pharmacist</text><ellipse cx="199.5" cy="945.2422" fill="#E2E2F0" rx="8" ry="8" style="stroke:#181818;stroke-width:0.5;"/><path d="M199.5,953.2422 L199.5,980.2422 M186.5,961.2422 L212.5,961.2422 M199.5,980.2422 L186.5,995.2422 M199.5,980.2422 L212.5,995.2422 " fill="none" style="stroke:#181818;stroke-width:0.5;"/><rect fill="#E2E2F0" height="30.2969" rx="2.5" ry="2.5" style="stroke:#181818;stroke-width:0.5;" width="48" x="365.5" y="87.2969"/><text fill="#000000" font-family="sans-serif" font-size="14" lengthAdjust="spacing" textLength="34" x="372.5" y="107.292">Vault</text><rect fill="#E2E2F0" height="30.2969" rx="2.5" ry="2.5" style="stroke:#181818;stroke-width:0.5;" width="48" x="365.5" y="920.4453"/><text fill="#000000" font-family="sans-serif" font-size="14" lengthAdjust="spacing" textLength="34" x="372.5" y="940.4404">Vault</text><path d="M10,135.5938 L157,135.5938 L157,142.7266 L147,152.7266 L10,152.7266 L10,135.5938 " fill="#EEEEEE" style="stroke:#000000;stroke-width:1.5;"/><rect fill="none" height="105.6641" style="stroke:#000000;stroke-width:1.5;" width="413.5" x="10" y="135.5938"/><text fill="#000000" font-family="sans-serif" font-size="13" font-weight="bold" lengthAdjust="spacing" textLength="102" x="25" y="148.6606">Initial Contact</text><polygon fill="#181818" points="187.5,184.9922,197.5,188.9922,187.5,192.9922,191.5,188.9922" style="stroke:#181818;stroke-width:1.0;"/><line style="stroke:#181818;stroke-width:1.0;" x1="57.5" x2="193.5" y1="188.9922" y2="188.9922"/><text fill="#000000" font-family="sans-serif" font-size="13" lengthAdjust="spacing" textLength="118" x="64.5" y="168.7935">Goes to Pharmacy</text><text fill="#000000" font-family="sans-serif" font-size="13" lengthAdjust="spacing" textLength="4" x="64.5" y="183.9263">&#160;</text><polygon fill="#181818" points="210.5,229.2578,200.5,233.2578,210.5,237.2578,206.5,233.2578" style="stroke:#181818;stroke-width:1.0;"/><line style="stroke:#181818;stroke-width:1.0;" x1="204.5" x2="388.5" y1="233.2578" y2="233.2578"/><text fill="#000000" font-family="sans-serif" font-size="13" lengthAdjust="spacing" textLength="155" x="216.5" y="213.0591">Get Patient's Medication</text><a href="ExampleScenario-example-13-scenario-resources.html#EB" target="_top" title="ExampleScenario-example-13-scenario-resources.html#EB" xlink:actuate="onRequest" xlink:href="ExampleScenario-example-13-scenario-resources.html#EB" xlink:show="new" xlink:title="ExampleScenario-example-13-scenario-resources.html#EB" xlink:type="simple"><text fill="#0000FF" font-family="sans-serif" font-size="13" lengthAdjust="spacing" text-decoration="underline" textLength="89" x="216.5" y="228.1919">Empty Bundle</text></a><path d="M148.5,255.2578 L299.5,255.2578 L299.5,262.3906 L289.5,272.3906 L148.5,272.3906 L148.5,255.2578 " fill="#EEEEEE" style="stroke:#000000;stroke-width:1.5;"/><rect fill="none" height="61.3984" style="stroke:#000000;stroke-width:1.5;" width="275" x="148.5" y="255.2578"/><text fill="#000000" font-family="sans-serif" font-size="13" font-weight="bold" lengthAdjust="spacing" textLength="106" x="163.5" y="268.3247">First Dispense</text><polygon fill="#181818" points="377.5,304.6563,387.5,308.6563,377.5,312.6563,381.5,308.6563" style="stroke:#181818;stroke-width:1.0;"/><line style="stroke:#181818;stroke-width:1.0;" x1="199.5" x2="383.5" y1="308.6563" y2="308.6563"/><text fill="#000000" font-family="sans-serif" font-size="13" lengthAdjust="spacing" textLength="124" x="206.5" y="288.4575">Dispense a product</text><a href="ExampleScenario-example-13-scenario-resources.html#13-1-dispense" target="_top" title="ExampleScenario-example-13-scenario-resources.html#13-1-dispense" xlink:actuate="onRequest" xlink:href="ExampleScenario-example-13-scenario-resources.html#13-1-dispense" xlink:show="new" xlink:title="ExampleScenario-example-13-scenario-resources.html#13-1-dispense" xlink:type="simple"><text fill="#0000FF" font-family="sans-serif" font-size="13" lengthAdjust="spacing" text-decoration="underline" textLength="128" x="206.5" y="303.5903">ibruprofen Dispense</text></a><path d="M355.5,330.6563 L620.5,330.6563 L620.5,337.7891 L610.5,347.7891 L355.5,347.7891 L355.5,330.6563 " fill="#EEEEEE" style="stroke:#000000;stroke-width:1.5;"/><rect fill="none" height="188.9297" style="stroke:#000000;stroke-width:1.5;" width="369" x="355.5" y="330.6563"/><text fill="#000000" font-family="sans-serif" font-size="13" font-weight="bold" lengthAdjust="spacing" textLength="220" x="370.5" y="343.7231">Treatment resources Creation</text><line style="stroke:#181818;stroke-width:1.0;" x1="389.5" x2="431.5" y1="384.0547" y2="384.0547"/><line style="stroke:#181818;stroke-width:1.0;" x1="431.5" x2="431.5" y1="384.0547" y2="397.0547"/><line style="stroke:#181818;stroke-width:1.0;" x1="390.5" x2="431.5" y1="397.0547" y2="397.0547"/><polygon fill="#181818" points="400.5,393.0547,390.5,397.0547,400.5,401.0547,396.5,397.0547" style="stroke:#181818;stroke-width:1.0;"/><text fill="#000000" font-family="sans-serif" font-size="13" lengthAdjust="spacing" textLength="141" x="396.5" y="363.856">Create new treatment</text><a href="ExampleScenario-example-13-scenario-resources.html#13-treatment" target="_top" title="ExampleScenario-example-13-scenario-resources.html#13-treatment" xlink:actuate="onRequest" xlink:href="ExampleScenario-example-13-scenario-resources.html#13-treatment" xlink:show="new" xlink:title="ExampleScenario-example-13-scenario-resources.html#13-treatment" xlink:type="simple"><text fill="#0000FF" font-family="sans-serif" font-size="13" lengthAdjust="spacing" text-decoration="underline" textLength="286" x="396.5" y="378.9888">New Treatment based on ibuprofen dispense</text></a><line style="stroke:#181818;stroke-width:1.0;" x1="389.5" x2="431.5" y1="441.3203" y2="441.3203"/><line style="stroke:#181818;stroke-width:1.0;" x1="431.5" x2="431.5" y1="441.3203" y2="454.3203"/><line style="stroke:#181818;stroke-width:1.0;" x1="390.5" x2="431.5" y1="454.3203" y2="454.3203"/><polygon fill="#181818" points="400.5,450.3203,390.5,454.3203,400.5,458.3203,396.5,454.3203" style="stroke:#181818;stroke-width:1.0;"/><text fill="#000000" font-family="sans-serif" font-size="13" lengthAdjust="spacing" textLength="171" x="396.5" y="421.1216">Create new treatment Line</text><a href="ExampleScenario-example-13-scenario-resources.html#13-1-treatmentLine" target="_top" title="ExampleScenario-example-13-scenario-resources.html#13-1-treatmentLine" xlink:actuate="onRequest" xlink:href="ExampleScenario-example-13-scenario-resources.html#13-1-treatmentLine" xlink:show="new" xlink:title="ExampleScenario-example-13-scenario-resources.html#13-1-treatmentLine" xlink:type="simple"><text fill="#0000FF" font-family="sans-serif" font-size="13" lengthAdjust="spacing" text-decoration="underline" textLength="316" x="396.5" y="436.2544">New Treatment Line based on ibuprofen dispense</text></a><line style="stroke:#181818;stroke-width:1.0;" x1="389.5" x2="431.5" y1="498.5859" y2="498.5859"/><line style="stroke:#181818;stroke-width:1.0;" x1="431.5" x2="431.5" y1="498.5859" y2="511.5859"/><line style="stroke:#181818;stroke-width:1.0;" x1="390.5" x2="431.5" y1="511.5859" y2="511.5859"/><polygon fill="#181818" points="400.5,507.5859,390.5,511.5859,400.5,515.5859,396.5,511.5859" style="stroke:#181818;stroke-width:1.0;"/><text fill="#000000" font-family="sans-serif" font-size="13" lengthAdjust="spacing" textLength="107" x="396.5" y="478.3872">Resource Linking</text><a href="ExampleScenario-example-13-scenario-resources.html#13-1-provenance" target="_top" title="ExampleScenario-example-13-scenario-resources.html#13-1-provenance" xlink:actuate="onRequest" xlink:href="ExampleScenario-example-13-scenario-resources.html#13-1-provenance" xlink:show="new" xlink:title="ExampleScenario-example-13-scenario-resources.html#13-1-provenance" xlink:type="simple"><text fill="#0000FF" font-family="sans-serif" font-size="13" lengthAdjust="spacing" text-decoration="underline" textLength="301" x="396.5" y="493.52">Link first ibuprofen dispense and treatmentLine</text></a><path d="M148.5,533.5859 L320.5,533.5859 L320.5,540.7188 L310.5,550.7188 L148.5,550.7188 L148.5,533.5859 " fill="#EEEEEE" style="stroke:#000000;stroke-width:1.5;"/><rect fill="none" height="61.3984" style="stroke:#000000;stroke-width:1.5;" width="275" x="148.5" y="533.5859"/><text fill="#000000" font-family="sans-serif" font-size="13" font-weight="bold" lengthAdjust="spacing" textLength="127" x="163.5" y="546.6528">Second Dispense</text><polygon fill="#181818" points="377.5,582.9844,387.5,586.9844,377.5,590.9844,381.5,586.9844" style="stroke:#181818;stroke-width:1.0;"/><line style="stroke:#181818;stroke-width:1.0;" x1="199.5" x2="383.5" y1="586.9844" y2="586.9844"/><text fill="#000000" font-family="sans-serif" font-size="13" lengthAdjust="spacing" textLength="166" x="206.5" y="566.7856">Dispense another product</text><a href="ExampleScenario-example-13-scenario-resources.html#13-2-dispense" target="_top" title="ExampleScenario-example-13-scenario-resources.html#13-2-dispense" xlink:actuate="onRequest" xlink:href="ExampleScenario-example-13-scenario-resources.html#13-2-dispense" xlink:show="new" xlink:title="ExampleScenario-example-13-scenario-resources.html#13-2-dispense" xlink:type="simple"><text fill="#0000FF" font-family="sans-serif" font-size="13" lengthAdjust="spacing" text-decoration="underline" textLength="144" x="206.5" y="581.9185">parecetamol Dispense</text></a><path d="M355.5,608.9844 L580.5,608.9844 L580.5,616.1172 L570.5,626.1172 L355.5,626.1172 L355.5,608.9844 " fill="#EEEEEE" style="stroke:#000000;stroke-width:1.5;"/><rect fill="none" height="131.6641" style="stroke:#000000;stroke-width:1.5;" width="390" x="355.5" y="608.9844"/><text fill="#000000" font-family="sans-serif" font-size="13" font-weight="bold" lengthAdjust="spacing" textLength="180" x="370.5" y="622.0513">New Resources Creation</text><line style="stroke:#181818;stroke-width:1.0;" x1="389.5" x2="431.5" y1="662.3828" y2="662.3828"/><line style="stroke:#181818;stroke-width:1.0;" x1="431.5" x2="431.5" y1="662.3828" y2="675.3828"/><line style="stroke:#181818;stroke-width:1.0;" x1="390.5" x2="431.5" y1="675.3828" y2="675.3828"/><polygon fill="#181818" points="400.5,671.3828,390.5,675.3828,400.5,679.3828,396.5,675.3828" style="stroke:#181818;stroke-width:1.0;"/><text fill="#000000" font-family="sans-serif" font-size="13" lengthAdjust="spacing" textLength="171" x="396.5" y="642.1841">Create new treatment Line</text><a href="ExampleScenario-example-13-scenario-resources.html#13-2-treatmentLine" target="_top" title="ExampleScenario-example-13-scenario-resources.html#13-2-treatmentLine" xlink:actuate="onRequest" xlink:href="ExampleScenario-example-13-scenario-resources.html#13-2-treatmentLine" xlink:show="new" xlink:title="ExampleScenario-example-13-scenario-resources.html#13-2-treatmentLine" xlink:type="simple"><text fill="#0000FF" font-family="sans-serif" font-size="13" lengthAdjust="spacing" text-decoration="underline" textLength="337" x="396.5" y="657.3169">New Treatment Line based on paracetamol dispense</text></a><line style="stroke:#181818;stroke-width:1.0;" x1="389.5" x2="431.5" y1="719.6484" y2="719.6484"/><line style="stroke:#181818;stroke-width:1.0;" x1="431.5" x2="431.5" y1="719.6484" y2="732.6484"/><line style="stroke:#181818;stroke-width:1.0;" x1="390.5" x2="431.5" y1="732.6484" y2="732.6484"/><polygon fill="#181818" points="400.5,728.6484,390.5,732.6484,400.5,736.6484,396.5,732.6484" style="stroke:#181818;stroke-width:1.0;"/><text fill="#000000" font-family="sans-serif" font-size="13" lengthAdjust="spacing" textLength="107" x="396.5" y="699.4497">Resource Linking</text><a href="ExampleScenario-example-13-scenario-resources.html#13-2-provenance" target="_top" title="ExampleScenario-example-13-scenario-resources.html#13-2-provenance" xlink:actuate="onRequest" xlink:href="ExampleScenario-example-13-scenario-resources.html#13-2-provenance" xlink:show="new" xlink:title="ExampleScenario-example-13-scenario-resources.html#13-2-provenance" xlink:type="simple"><text fill="#0000FF" font-family="sans-serif" font-size="13" lengthAdjust="spacing" text-decoration="underline" textLength="294" x="396.5" y="714.5825">Link paracetamol dispense and treatmentLine</text></a><path d="M148.5,754.6484 L303.5,754.6484 L303.5,761.7813 L293.5,771.7813 L148.5,771.7813 L148.5,754.6484 " fill="#EEEEEE" style="stroke:#000000;stroke-width:1.5;"/><rect fill="none" height="61.3984" style="stroke:#000000;stroke-width:1.5;" width="275" x="148.5" y="754.6484"/><text fill="#000000" font-family="sans-serif" font-size="13" font-weight="bold" lengthAdjust="spacing" textLength="110" x="163.5" y="767.7153">Third Dispense</text><polygon fill="#181818" points="377.5,804.0469,387.5,808.0469,377.5,812.0469,381.5,808.0469" style="stroke:#181818;stroke-width:1.0;"/><line style="stroke:#181818;stroke-width:1.0;" x1="199.5" x2="383.5" y1="808.0469" y2="808.0469"/><text fill="#000000" font-family="sans-serif" font-size="13" lengthAdjust="spacing" textLength="166" x="206.5" y="787.8481">Dispense another product</text><a href="ExampleScenario-example-13-scenario-resources.html#13-3-dispense" target="_top" title="ExampleScenario-example-13-scenario-resources.html#13-3-dispense" xlink:actuate="onRequest" xlink:href="ExampleScenario-example-13-scenario-resources.html#13-3-dispense" xlink:show="new" xlink:title="ExampleScenario-example-13-scenario-resources.html#13-3-dispense" xlink:type="simple"><text fill="#0000FF" font-family="sans-serif" font-size="13" lengthAdjust="spacing" text-decoration="underline" textLength="128" x="206.5" y="802.981">ibruprofen Dispense</text></a><path d="M355.5,830.0469 L531.5,830.0469 L531.5,837.1797 L521.5,847.1797 L355.5,847.1797 L355.5,830.0469 " fill="#EEEEEE" style="stroke:#000000;stroke-width:1.5;"/><rect fill="none" height="74.3984" style="stroke:#000000;stroke-width:1.5;" width="376" x="355.5" y="830.0469"/><text fill="#000000" font-family="sans-serif" font-size="13" font-weight="bold" lengthAdjust="spacing" textLength="131" x="370.5" y="843.1138">Resource Linkage</text><line style="stroke:#181818;stroke-width:1.0;" x1="389.5" x2="431.5" y1="883.4453" y2="883.4453"/><line style="stroke:#181818;stroke-width:1.0;" x1="431.5" x2="431.5" y1="883.4453" y2="896.4453"/><line style="stroke:#181818;stroke-width:1.0;" x1="390.5" x2="431.5" y1="896.4453" y2="896.4453"/><polygon fill="#181818" points="400.5,892.4453,390.5,896.4453,400.5,900.4453,396.5,896.4453" style="stroke:#181818;stroke-width:1.0;"/><text fill="#000000" font-family="sans-serif" font-size="13" lengthAdjust="spacing" textLength="107" x="396.5" y="863.2466">Resource Linking</text><a href="ExampleScenario-example-13-scenario-resources.html#13-3-provenance" target="_top" title="ExampleScenario-example-13-scenario-resources.html#13-3-provenance" xlink:actuate="onRequest" xlink:href="ExampleScenario-example-13-scenario-resources.html#13-3-provenance" xlink:show="new" xlink:title="ExampleScenario-example-13-scenario-resources.html#13-3-provenance" xlink:type="simple"><text fill="#0000FF" font-family="sans-serif" font-size="13" lengthAdjust="spacing" text-decoration="underline" textLength="323" x="396.5" y="878.3794">Link second ibuprofen dispense and treatmentLine</text></a><!--SRC=[lPHDRvj048Rl-oj6xg4dAiM-vH39STmsKZuiX-QIv31UnlQgi8jsXxR-znt0G1oYoXzgB6I9dUMTPrvUDZQS4boPa9CD16u9z_44CagCHZREWboy9j0komfhU0Fv6ds6UgCKQdOU1ZE3C2Cc7mQ00MRZ-7fw5xVLUhi9N5U_Z-UtAaVFHfiSBSFW4OkqBZwEVzp4Ie7ytlrRULVaS2qO1bEOEClIHAbjHuWkQdauXs-E0h23RVVDirML-CuUOfZ9a6JvSu3RTkHd-_Gq_ODPdjA39elUk8Zg- -Xi58LcpLDmXTSKlgmvIpzDBs6QvMBGPM6Jb5vU5DdaDVTNumEtLWjsnI50DTbvznOGSk-IGlEHA58wYv96pIny8NfBics7Fbpi2JaJAw3LWacv9eQephi6jIeHMFeDt3nvF6mh0NSYsA4iC51I9j0icWcIReAzeE36M3h5nbQf57h3LoqT23dVzYWV_cdiwXGsQVTBodQh1iigONqEG9l0pY3z03oGTh9hhtXQ9qU2FpsamowaSYAG9iRCfVz8QMd__DXydXY5uG5Ha6cmcUPZmZ3iXU4zXds24A-D_-0SZ0uyh7PimnMf_-digETig3-LWxupzHS0]--></g></svg>