<?xml version="1.0" encoding="us-ascii" standalone="no"?><svg xmlns="http://www.w3.org/2000/svg" xmlns:xlink="http://www.w3.org/1999/xlink" contentStyleType="text/css" height="794px" preserveAspectRatio="none" style="width:760px;height:794px;background:#FFFFFF;" version="1.1" viewBox="0 0 760 794" width="760px" zoomAndPan="magnify"><defs/><g><text fill="#000000" font-family="sans-serif" font-size="14" font-weight="bold" lengthAdjust="spacing" textLength="343" x="210.25" y="27.9951">Change VOS from prescription on dispense</text><rect fill="none" height="149.9297" style="stroke:#000000;stroke-width:1.5;" width="486.5" x="10" y="135.5938"/><rect fill="none" height="188.9297" style="stroke:#000000;stroke-width:1.5;" width="280" x="428.5" y="299.5234"/><rect fill="none" height="105.6641" style="stroke:#000000;stroke-width:1.5;" width="326" x="428.5" y="502.4531"/><rect fill="none" height="74.3984" style="stroke:#000000;stroke-width:1.5;" width="264" x="428.5" y="622.1172"/><line style="stroke:#181818;stroke-width:0.5;stroke-dasharray:5.0,5.0;" x1="57" x2="57" y1="118.5938" y2="713.5156"/><line style="stroke:#181818;stroke-width:0.5;stroke-dasharray:5.0,5.0;" x1="217" x2="217" y1="118.5938" y2="713.5156"/><line style="stroke:#181818;stroke-width:0.5;stroke-dasharray:5.0,5.0;" x1="462.5" x2="462.5" y1="118.5938" y2="713.5156"/><line style="stroke:#181818;stroke-width:0.5;stroke-dasharray:5.0,5.0;" x1="703.5" x2="703.5" y1="118.5938" y2="713.5156"/><text fill="#000000" font-family="sans-serif" font-size="14" lengthAdjust="spacing" textLength="69" x="20" y="115.292">Pia Peters</text><ellipse cx="57.5" cy="50.7969" fill="#E2E2F0" rx="8" ry="8" style="stroke:#181818;stroke-width:0.5;"/><path d="M57.5,58.7969 L57.5,85.7969 M44.5,66.7969 L70.5,66.7969 M57.5,85.7969 L44.5,100.7969 M57.5,85.7969 L70.5,100.7969 " fill="none" style="stroke:#181818;stroke-width:0.5;"/><text fill="#000000" font-family="sans-serif" font-size="14" lengthAdjust="spacing" textLength="69" x="20" y="725.5107">Pia Peters</text><ellipse cx="57.5" cy="737.3125" fill="#E2E2F0" rx="8" ry="8" style="stroke:#181818;stroke-width:0.5;"/><path d="M57.5,745.3125 L57.5,772.3125 M44.5,753.3125 L70.5,753.3125 M57.5,772.3125 L44.5,787.3125 M57.5,772.3125 L70.5,787.3125 " fill="none" style="stroke:#181818;stroke-width:0.5;"/><text fill="#000000" font-family="sans-serif" font-size="14" lengthAdjust="spacing" textLength="71" x="179" y="115.292">Dr. Durant</text><ellipse cx="217.5" cy="50.7969" fill="#E2E2F0" rx="8" ry="8" style="stroke:#181818;stroke-width:0.5;"/><path d="M217.5,58.7969 L217.5,85.7969 M204.5,66.7969 L230.5,66.7969 M217.5,85.7969 L204.5,100.7969 M217.5,85.7969 L230.5,100.7969 " fill="none" style="stroke:#181818;stroke-width:0.5;"/><text fill="#000000" font-family="sans-serif" font-size="14" lengthAdjust="spacing" textLength="71" x="179" y="725.5107">Dr. Durant</text><ellipse cx="217.5" cy="737.3125" fill="#E2E2F0" rx="8" ry="8" style="stroke:#181818;stroke-width:0.5;"/><path d="M217.5,745.3125 L217.5,772.3125 M204.5,753.3125 L230.5,753.3125 M217.5,772.3125 L204.5,787.3125 M217.5,772.3125 L230.5,787.3125 " fill="none" style="stroke:#181818;stroke-width:0.5;"/><rect fill="#E2E2F0" height="30.2969" rx="2.5" ry="2.5" style="stroke:#181818;stroke-width:0.5;" width="48" x="438.5" y="87.2969"/><text fill="#000000" font-family="sans-serif" font-size="14" lengthAdjust="spacing" textLength="34" x="445.5" y="107.292">Vault</text><rect fill="#E2E2F0" height="30.2969" rx="2.5" ry="2.5" style="stroke:#181818;stroke-width:0.5;" width="48" x="438.5" y="712.5156"/><text fill="#000000" font-family="sans-serif" font-size="14" lengthAdjust="spacing" textLength="34" x="445.5" y="732.5107">Vault</text><text fill="#000000" font-family="sans-serif" font-size="14" lengthAdjust="spacing" textLength="76" x="662.5" y="115.292">Pharmacist</text><ellipse cx="703.5" cy="50.7969" fill="#E2E2F0" rx="8" ry="8" style="stroke:#181818;stroke-width:0.5;"/><path d="M703.5,58.7969 L703.5,85.7969 M690.5,66.7969 L716.5,66.7969 M703.5,85.7969 L690.5,100.7969 M703.5,85.7969 L716.5,100.7969 " fill="none" style="stroke:#181818;stroke-width:0.5;"/><text fill="#000000" font-family="sans-serif" font-size="14" lengthAdjust="spacing" textLength="76" x="662.5" y="725.5107">Pharmacist</text><ellipse cx="703.5" cy="737.3125" fill="#E2E2F0" rx="8" ry="8" style="stroke:#181818;stroke-width:0.5;"/><path d="M703.5,745.3125 L703.5,772.3125 M690.5,753.3125 L716.5,753.3125 M703.5,772.3125 L690.5,787.3125 M703.5,772.3125 L716.5,787.3125 " fill="none" style="stroke:#181818;stroke-width:0.5;"/><path d="M10,135.5938 L157,135.5938 L157,142.7266 L147,152.7266 L10,152.7266 L10,135.5938 " fill="#EEEEEE" style="stroke:#000000;stroke-width:1.5;"/><rect fill="none" height="149.9297" style="stroke:#000000;stroke-width:1.5;" width="486.5" x="10" y="135.5938"/><text fill="#000000" font-family="sans-serif" font-size="13" font-weight="bold" lengthAdjust="spacing" textLength="102" x="25" y="148.6606">Initial Contact</text><polygon fill="#181818" points="205.5,184.9922,215.5,188.9922,205.5,192.9922,209.5,188.9922" style="stroke:#181818;stroke-width:1.0;"/><line style="stroke:#181818;stroke-width:1.0;" x1="57.5" x2="211.5" y1="188.9922" y2="188.9922"/><text fill="#000000" font-family="sans-serif" font-size="13" lengthAdjust="spacing" textLength="136" x="64.5" y="168.7935">Goes to appointment</text><text fill="#000000" font-family="sans-serif" font-size="13" lengthAdjust="spacing" textLength="4" x="64.5" y="183.9263">&#160;</text><polygon fill="#181818" points="228.5,229.2578,218.5,233.2578,228.5,237.2578,224.5,233.2578" style="stroke:#181818;stroke-width:1.0;"/><line style="stroke:#181818;stroke-width:1.0;" x1="222.5" x2="461.5" y1="233.2578" y2="233.2578"/><text fill="#000000" font-family="sans-serif" font-size="13" lengthAdjust="spacing" textLength="155" x="234.5" y="213.0591">Get Patient's Medication</text><a href="ExampleScenario-example-2-scenario-resources.html#EB" target="_top" title="ExampleScenario-example-2-scenario-resources.html#EB" xlink:actuate="onRequest" xlink:href="ExampleScenario-example-2-scenario-resources.html#EB" xlink:show="new" xlink:title="ExampleScenario-example-2-scenario-resources.html#EB" xlink:type="simple"><text fill="#0000FF" font-family="sans-serif" font-size="13" lengthAdjust="spacing" text-decoration="underline" textLength="89" x="234.5" y="228.1919">Empty Bundle</text></a><polygon fill="#181818" points="450.5,273.5234,460.5,277.5234,450.5,281.5234,454.5,277.5234" style="stroke:#181818;stroke-width:1.0;"/><line style="stroke:#181818;stroke-width:1.0;" x1="217.5" x2="456.5" y1="277.5234" y2="277.5234"/><text fill="#000000" font-family="sans-serif" font-size="13" lengthAdjust="spacing" textLength="151" x="224.5" y="257.3247">Create new prescription</text><a href="ExampleScenario-example-2-scenario-resources.html#2a-prescription" target="_top" title="ExampleScenario-example-2-scenario-resources.html#2a-prescription" xlink:actuate="onRequest" xlink:href="ExampleScenario-example-2-scenario-resources.html#2a-prescription" xlink:show="new" xlink:title="ExampleScenario-example-2-scenario-resources.html#2a-prescription" xlink:type="simple"><text fill="#0000FF" font-family="sans-serif" font-size="13" lengthAdjust="spacing" text-decoration="underline" textLength="221" x="224.5" y="272.4575">Paracetamol 1000 mg Prescription</text></a><path d="M428.5,299.5234 L693.5,299.5234 L693.5,306.6563 L683.5,316.6563 L428.5,316.6563 L428.5,299.5234 " fill="#EEEEEE" style="stroke:#000000;stroke-width:1.5;"/><rect fill="none" height="188.9297" style="stroke:#000000;stroke-width:1.5;" width="280" x="428.5" y="299.5234"/><text fill="#000000" font-family="sans-serif" font-size="13" font-weight="bold" lengthAdjust="spacing" textLength="220" x="443.5" y="312.5903">Treatment resources Creation</text><line style="stroke:#181818;stroke-width:1.0;" x1="462.5" x2="504.5" y1="352.9219" y2="352.9219"/><line style="stroke:#181818;stroke-width:1.0;" x1="504.5" x2="504.5" y1="352.9219" y2="365.9219"/><line style="stroke:#181818;stroke-width:1.0;" x1="463.5" x2="504.5" y1="365.9219" y2="365.9219"/><polygon fill="#181818" points="473.5,361.9219,463.5,365.9219,473.5,369.9219,469.5,365.9219" style="stroke:#181818;stroke-width:1.0;"/><text fill="#000000" font-family="sans-serif" font-size="13" lengthAdjust="spacing" textLength="141" x="469.5" y="332.7231">Create new treatment</text><a href="ExampleScenario-example-2-scenario-resources.html#2a-treatment" target="_top" title="ExampleScenario-example-2-scenario-resources.html#2a-treatment" xlink:actuate="onRequest" xlink:href="ExampleScenario-example-2-scenario-resources.html#2a-treatment" xlink:show="new" xlink:title="ExampleScenario-example-2-scenario-resources.html#2a-treatment" xlink:type="simple"><text fill="#0000FF" font-family="sans-serif" font-size="13" lengthAdjust="spacing" text-decoration="underline" textLength="98" x="469.5" y="347.856">New Treatment</text></a><line style="stroke:#181818;stroke-width:1.0;" x1="462.5" x2="504.5" y1="410.1875" y2="410.1875"/><line style="stroke:#181818;stroke-width:1.0;" x1="504.5" x2="504.5" y1="410.1875" y2="423.1875"/><line style="stroke:#181818;stroke-width:1.0;" x1="463.5" x2="504.5" y1="423.1875" y2="423.1875"/><polygon fill="#181818" points="473.5,419.1875,463.5,423.1875,473.5,427.1875,469.5,423.1875" style="stroke:#181818;stroke-width:1.0;"/><text fill="#000000" font-family="sans-serif" font-size="13" lengthAdjust="spacing" textLength="171" x="469.5" y="389.9888">Create new treatment Line</text><a href="ExampleScenario-example-2-scenario-resources.html#2a-treatmentLine" target="_top" title="ExampleScenario-example-2-scenario-resources.html#2a-treatmentLine" xlink:actuate="onRequest" xlink:href="ExampleScenario-example-2-scenario-resources.html#2a-treatmentLine" xlink:show="new" xlink:title="ExampleScenario-example-2-scenario-resources.html#2a-treatmentLine" xlink:type="simple"><text fill="#0000FF" font-family="sans-serif" font-size="13" lengthAdjust="spacing" text-decoration="underline" textLength="128" x="469.5" y="405.1216">New Treatment Line</text></a><line style="stroke:#181818;stroke-width:1.0;" x1="462.5" x2="504.5" y1="467.4531" y2="467.4531"/><line style="stroke:#181818;stroke-width:1.0;" x1="504.5" x2="504.5" y1="467.4531" y2="480.4531"/><line style="stroke:#181818;stroke-width:1.0;" x1="463.5" x2="504.5" y1="480.4531" y2="480.4531"/><polygon fill="#181818" points="473.5,476.4531,463.5,480.4531,473.5,484.4531,469.5,480.4531" style="stroke:#181818;stroke-width:1.0;"/><text fill="#000000" font-family="sans-serif" font-size="13" lengthAdjust="spacing" textLength="107" x="469.5" y="447.2544">Resource Linking</text><a href="ExampleScenario-example-2-scenario-resources.html#2-1-provenance" target="_top" title="ExampleScenario-example-2-scenario-resources.html#2-1-provenance" xlink:actuate="onRequest" xlink:href="ExampleScenario-example-2-scenario-resources.html#2-1-provenance" xlink:show="new" xlink:title="ExampleScenario-example-2-scenario-resources.html#2-1-provenance" xlink:type="simple"><text fill="#0000FF" font-family="sans-serif" font-size="13" lengthAdjust="spacing" text-decoration="underline" textLength="227" x="469.5" y="462.3872">Link Prescription and treatmentLine</text></a><path d="M428.5,502.4531 L541.5,502.4531 L541.5,509.5859 L531.5,519.5859 L428.5,519.5859 L428.5,502.4531 " fill="#EEEEEE" style="stroke:#000000;stroke-width:1.5;"/><rect fill="none" height="105.6641" style="stroke:#000000;stroke-width:1.5;" width="326" x="428.5" y="502.4531"/><text fill="#000000" font-family="sans-serif" font-size="13" font-weight="bold" lengthAdjust="spacing" textLength="68" x="443.5" y="515.52">Dispense</text><polygon fill="#181818" points="691.5,551.8516,701.5,555.8516,691.5,559.8516,695.5,555.8516" style="stroke:#181818;stroke-width:1.0;"/><line style="stroke:#181818;stroke-width:1.0;" x1="462.5" x2="697.5" y1="555.8516" y2="555.8516"/><text fill="#000000" font-family="sans-serif" font-size="13" lengthAdjust="spacing" textLength="168" x="469.5" y="535.6528">Get patient's Prescriptions</text><a href="ExampleScenario-example-2-scenario-resources.html#EB" target="_top" title="ExampleScenario-example-2-scenario-resources.html#EB" xlink:actuate="onRequest" xlink:href="ExampleScenario-example-2-scenario-resources.html#EB" xlink:show="new" xlink:title="ExampleScenario-example-2-scenario-resources.html#EB" xlink:type="simple"><text fill="#0000FF" font-family="sans-serif" font-size="13" lengthAdjust="spacing" text-decoration="underline" textLength="89" x="469.5" y="550.7856">Empty Bundle</text></a><polygon fill="#181818" points="473.5,596.1172,463.5,600.1172,473.5,604.1172,469.5,600.1172" style="stroke:#181818;stroke-width:1.0;"/><line style="stroke:#181818;stroke-width:1.0;" x1="467.5" x2="702.5" y1="600.1172" y2="600.1172"/><text fill="#000000" font-family="sans-serif" font-size="13" lengthAdjust="spacing" textLength="133" x="479.5" y="579.9185">Create new dispense</text><a href="ExampleScenario-example-2-scenario-resources.html#2a-dispense" target="_top" title="ExampleScenario-example-2-scenario-resources.html#2a-dispense" xlink:actuate="onRequest" xlink:href="ExampleScenario-example-2-scenario-resources.html#2a-dispense" xlink:show="new" xlink:title="ExampleScenario-example-2-scenario-resources.html#2a-dispense" xlink:type="simple"><text fill="#0000FF" font-family="sans-serif" font-size="13" lengthAdjust="spacing" text-decoration="underline" textLength="195" x="479.5" y="595.0513">paracetamol 500 mg dispense</text></a><path d="M428.5,622.1172 L604.5,622.1172 L604.5,629.25 L594.5,639.25 L428.5,639.25 L428.5,622.1172 " fill="#EEEEEE" style="stroke:#000000;stroke-width:1.5;"/><rect fill="none" height="74.3984" style="stroke:#000000;stroke-width:1.5;" width="264" x="428.5" y="622.1172"/><text fill="#000000" font-family="sans-serif" font-size="13" font-weight="bold" lengthAdjust="spacing" textLength="131" x="443.5" y="635.1841">Resource Linkage</text><line style="stroke:#181818;stroke-width:1.0;" x1="462.5" x2="504.5" y1="675.5156" y2="675.5156"/><line style="stroke:#181818;stroke-width:1.0;" x1="504.5" x2="504.5" y1="675.5156" y2="688.5156"/><line style="stroke:#181818;stroke-width:1.0;" x1="463.5" x2="504.5" y1="688.5156" y2="688.5156"/><polygon fill="#181818" points="473.5,684.5156,463.5,688.5156,473.5,692.5156,469.5,688.5156" style="stroke:#181818;stroke-width:1.0;"/><text fill="#000000" font-family="sans-serif" font-size="13" lengthAdjust="spacing" textLength="107" x="469.5" y="655.3169">Resource Linking</text><a href="ExampleScenario-example-2-scenario-resources.html#2-2-provenance" target="_top" title="ExampleScenario-example-2-scenario-resources.html#2-2-provenance" xlink:actuate="onRequest" xlink:href="ExampleScenario-example-2-scenario-resources.html#2-2-provenance" xlink:show="new" xlink:title="ExampleScenario-example-2-scenario-resources.html#2-2-provenance" xlink:type="simple"><text fill="#0000FF" font-family="sans-serif" font-size="13" lengthAdjust="spacing" text-decoration="underline" textLength="211" x="469.5" y="670.4497">Link Dispense and treatmentLine</text></a><!--SRC=[jLHDJ-Cm4BtxLupAWLDGgSI50r9fAnQ93mjABy1Xb0ofjSdOiYViykzncYPjr0gXiXj5aU8tUUzvtZXp8mN1P8cS4opk7-7DsnASfv1wuyHOXdXd9ZZYG4fXAjR3G1i4JK8-3003wF7yUdOtRz6fFu5fvP5bXLvfvT2BIOsBIp1OO5Kqo6ByTDDzfPVeIqnDQ33zQ_nmgnJ4Q-yZzxPoSCr631OmiIoHHwcr5KWkeYwSmvMb0681dRE6fIIM5rOhuKqD2MWK4x7Z0BUKcHJhhR_my_FiBvQkeCUK6Bsn2JNloIW9xL9ibgryIk5aAMLnDBk4MUda0ouhpWfwVLLH94erckSmyOH2mFIdr-V3n4QOzCBIw34bmT8MS3eS3g7CGMyLH3V4sNO7vxMTkYtGKJSMOxNQD6gFUsc_FDXwnm1taQzp4ar-InTk3DFFnMkMle4LyJuN3skMkk2tuVn0yUGqfcRV8yfhhbv8W9n1pzvkRDFkI7OcLoTcFSwk6-Tjul2l9hgHsXzF-xCuE9YM86vYCyndpIots6v3Uj5WJkh_fJVQIQzDuular2S0]--></g></svg>