<?xml version="1.0" encoding="us-ascii" standalone="no"?><svg xmlns="http://www.w3.org/2000/svg" xmlns:xlink="http://www.w3.org/1999/xlink" contentStyleType="text/css" height="1059px" preserveAspectRatio="none" style="width:756px;height:1059px;background:#FFFFFF;" version="1.1" viewBox="0 0 756 1059" width="756px" zoomAndPan="magnify"><defs/><g><text fill="#000000" font-family="sans-serif" font-size="14" font-weight="bold" lengthAdjust="spacing" textLength="554" x="102.75" y="27.9951">Dispense of medication that was prescribed, but not taken till the end</text><rect fill="none" height="149.9297" style="stroke:#000000;stroke-width:1.5;" width="439.5" x="10" y="135.5938"/><rect fill="none" height="188.9297" style="stroke:#000000;stroke-width:1.5;" width="323" x="381.5" y="299.5234"/><rect fill="none" height="105.6641" style="stroke:#000000;stroke-width:1.5;" width="369" x="381.5" y="502.4531"/><rect fill="none" height="74.3984" style="stroke:#000000;stroke-width:1.5;" width="264" x="381.5" y="622.1172"/><rect fill="none" height="105.6641" style="stroke:#000000;stroke-width:1.5;" width="439.5" x="10" y="710.5156"/><rect fill="none" height="131.6641" style="stroke:#000000;stroke-width:1.5;" width="298" x="381.5" y="830.1797"/><line style="stroke:#181818;stroke-width:0.5;stroke-dasharray:5.0,5.0;" x1="57" x2="57" y1="118.5938" y2="978.8438"/><line style="stroke:#181818;stroke-width:0.5;stroke-dasharray:5.0,5.0;" x1="217" x2="217" y1="118.5938" y2="978.8438"/><line style="stroke:#181818;stroke-width:0.5;stroke-dasharray:5.0,5.0;" x1="415.5" x2="415.5" y1="118.5938" y2="978.8438"/><line style="stroke:#181818;stroke-width:0.5;stroke-dasharray:5.0,5.0;" x1="699.5" x2="699.5" y1="118.5938" y2="978.8438"/><text fill="#000000" font-family="sans-serif" font-size="14" lengthAdjust="spacing" textLength="69" x="20" y="115.292">Pia Peters</text><ellipse cx="57.5" cy="50.7969" fill="#E2E2F0" rx="8" ry="8" style="stroke:#181818;stroke-width:0.5;"/><path d="M57.5,58.7969 L57.5,85.7969 M44.5,66.7969 L70.5,66.7969 M57.5,85.7969 L44.5,100.7969 M57.5,85.7969 L70.5,100.7969 " fill="none" style="stroke:#181818;stroke-width:0.5;"/><text fill="#000000" font-family="sans-serif" font-size="14" lengthAdjust="spacing" textLength="69" x="20" y="990.8389">Pia Peters</text><ellipse cx="57.5" cy="1002.6406" fill="#E2E2F0" rx="8" ry="8" style="stroke:#181818;stroke-width:0.5;"/><path d="M57.5,1010.6406 L57.5,1037.6406 M44.5,1018.6406 L70.5,1018.6406 M57.5,1037.6406 L44.5,1052.6406 M57.5,1037.6406 L70.5,1052.6406 " fill="none" style="stroke:#181818;stroke-width:0.5;"/><text fill="#000000" font-family="sans-serif" font-size="14" lengthAdjust="spacing" textLength="71" x="179" y="115.292">Dr. Durant</text><ellipse cx="217.5" cy="50.7969" fill="#E2E2F0" rx="8" ry="8" style="stroke:#181818;stroke-width:0.5;"/><path d="M217.5,58.7969 L217.5,85.7969 M204.5,66.7969 L230.5,66.7969 M217.5,85.7969 L204.5,100.7969 M217.5,85.7969 L230.5,100.7969 " fill="none" style="stroke:#181818;stroke-width:0.5;"/><text fill="#000000" font-family="sans-serif" font-size="14" lengthAdjust="spacing" textLength="71" x="179" y="990.8389">Dr. Durant</text><ellipse cx="217.5" cy="1002.6406" fill="#E2E2F0" rx="8" ry="8" style="stroke:#181818;stroke-width:0.5;"/><path d="M217.5,1010.6406 L217.5,1037.6406 M204.5,1018.6406 L230.5,1018.6406 M217.5,1037.6406 L204.5,1052.6406 M217.5,1037.6406 L230.5,1052.6406 " fill="none" style="stroke:#181818;stroke-width:0.5;"/><rect fill="#E2E2F0" height="30.2969" rx="2.5" ry="2.5" style="stroke:#181818;stroke-width:0.5;" width="48" x="391.5" y="87.2969"/><text fill="#000000" font-family="sans-serif" font-size="14" lengthAdjust="spacing" textLength="34" x="398.5" y="107.292">Vault</text><rect fill="#E2E2F0" height="30.2969" rx="2.5" ry="2.5" style="stroke:#181818;stroke-width:0.5;" width="48" x="391.5" y="977.8438"/><text fill="#000000" font-family="sans-serif" font-size="14" lengthAdjust="spacing" textLength="34" x="398.5" y="997.8389">Vault</text><text fill="#000000" font-family="sans-serif" font-size="14" lengthAdjust="spacing" textLength="76" x="658.5" y="115.292">Pharmacist</text><ellipse cx="699.5" cy="50.7969" fill="#E2E2F0" rx="8" ry="8" style="stroke:#181818;stroke-width:0.5;"/><path d="M699.5,58.7969 L699.5,85.7969 M686.5,66.7969 L712.5,66.7969 M699.5,85.7969 L686.5,100.7969 M699.5,85.7969 L712.5,100.7969 " fill="none" style="stroke:#181818;stroke-width:0.5;"/><text fill="#000000" font-family="sans-serif" font-size="14" lengthAdjust="spacing" textLength="76" x="658.5" y="990.8389">Pharmacist</text><ellipse cx="699.5" cy="1002.6406" fill="#E2E2F0" rx="8" ry="8" style="stroke:#181818;stroke-width:0.5;"/><path d="M699.5,1010.6406 L699.5,1037.6406 M686.5,1018.6406 L712.5,1018.6406 M699.5,1037.6406 L686.5,1052.6406 M699.5,1037.6406 L712.5,1052.6406 " fill="none" style="stroke:#181818;stroke-width:0.5;"/><path d="M10,135.5938 L155,135.5938 L155,142.7266 L145,152.7266 L10,152.7266 L10,135.5938 " fill="#EEEEEE" style="stroke:#000000;stroke-width:1.5;"/><rect fill="none" height="149.9297" style="stroke:#000000;stroke-width:1.5;" width="439.5" x="10" y="135.5938"/><text fill="#000000" font-family="sans-serif" font-size="13" font-weight="bold" lengthAdjust="spacing" textLength="100" x="25" y="148.6606">Initial contact</text><polygon fill="#181818" points="205.5,184.9922,215.5,188.9922,205.5,192.9922,209.5,188.9922" style="stroke:#181818;stroke-width:1.0;"/><line style="stroke:#181818;stroke-width:1.0;" x1="57.5" x2="211.5" y1="188.9922" y2="188.9922"/><text fill="#000000" font-family="sans-serif" font-size="13" lengthAdjust="spacing" textLength="136" x="64.5" y="168.7935">Goes to appointment</text><text fill="#000000" font-family="sans-serif" font-size="13" lengthAdjust="spacing" textLength="4" x="64.5" y="183.9263">&#160;</text><polygon fill="#181818" points="228.5,229.2578,218.5,233.2578,228.5,237.2578,224.5,233.2578" style="stroke:#181818;stroke-width:1.0;"/><line style="stroke:#181818;stroke-width:1.0;" x1="222.5" x2="414.5" y1="233.2578" y2="233.2578"/><text fill="#000000" font-family="sans-serif" font-size="13" lengthAdjust="spacing" textLength="155" x="234.5" y="213.0591">Get Patient's Medication</text><a href="ExampleScenario-example-8-scenario-resources.html#EB" target="_top" title="ExampleScenario-example-8-scenario-resources.html#EB" xlink:actuate="onRequest" xlink:href="ExampleScenario-example-8-scenario-resources.html#EB" xlink:show="new" xlink:title="ExampleScenario-example-8-scenario-resources.html#EB" xlink:type="simple"><text fill="#0000FF" font-family="sans-serif" font-size="13" lengthAdjust="spacing" text-decoration="underline" textLength="89" x="234.5" y="228.1919">Empty Bundle</text></a><polygon fill="#181818" points="403.5,273.5234,413.5,277.5234,403.5,281.5234,407.5,277.5234" style="stroke:#181818;stroke-width:1.0;"/><line style="stroke:#181818;stroke-width:1.0;" x1="217.5" x2="409.5" y1="277.5234" y2="277.5234"/><text fill="#000000" font-family="sans-serif" font-size="13" lengthAdjust="spacing" textLength="151" x="224.5" y="257.3247">Create new prescription</text><a href="ExampleScenario-example-8-scenario-resources.html#8-prescription" target="_top" title="ExampleScenario-example-8-scenario-resources.html#8-prescription" xlink:actuate="onRequest" xlink:href="ExampleScenario-example-8-scenario-resources.html#8-prescription" xlink:show="new" xlink:title="ExampleScenario-example-8-scenario-resources.html#8-prescription" xlink:type="simple"><text fill="#0000FF" font-family="sans-serif" font-size="13" lengthAdjust="spacing" text-decoration="underline" textLength="106" x="224.5" y="272.4575">New prescription</text></a><path d="M381.5,299.5234 L646.5,299.5234 L646.5,306.6563 L636.5,316.6563 L381.5,316.6563 L381.5,299.5234 " fill="#EEEEEE" style="stroke:#000000;stroke-width:1.5;"/><rect fill="none" height="188.9297" style="stroke:#000000;stroke-width:1.5;" width="323" x="381.5" y="299.5234"/><text fill="#000000" font-family="sans-serif" font-size="13" font-weight="bold" lengthAdjust="spacing" textLength="220" x="396.5" y="312.5903">Treatment resources Creation</text><line style="stroke:#181818;stroke-width:1.0;" x1="415.5" x2="457.5" y1="352.9219" y2="352.9219"/><line style="stroke:#181818;stroke-width:1.0;" x1="457.5" x2="457.5" y1="352.9219" y2="365.9219"/><line style="stroke:#181818;stroke-width:1.0;" x1="416.5" x2="457.5" y1="365.9219" y2="365.9219"/><polygon fill="#181818" points="426.5,361.9219,416.5,365.9219,426.5,369.9219,422.5,365.9219" style="stroke:#181818;stroke-width:1.0;"/><text fill="#000000" font-family="sans-serif" font-size="13" lengthAdjust="spacing" textLength="141" x="422.5" y="332.7231">Create new treatment</text><a href="ExampleScenario-example-8-scenario-resources.html#8-treatment" target="_top" title="ExampleScenario-example-8-scenario-resources.html#8-treatment" xlink:actuate="onRequest" xlink:href="ExampleScenario-example-8-scenario-resources.html#8-treatment" xlink:show="new" xlink:title="ExampleScenario-example-8-scenario-resources.html#8-treatment" xlink:type="simple"><text fill="#0000FF" font-family="sans-serif" font-size="13" lengthAdjust="spacing" text-decoration="underline" textLength="240" x="422.5" y="347.856">New Treatment based on prescription</text></a><line style="stroke:#181818;stroke-width:1.0;" x1="415.5" x2="457.5" y1="410.1875" y2="410.1875"/><line style="stroke:#181818;stroke-width:1.0;" x1="457.5" x2="457.5" y1="410.1875" y2="423.1875"/><line style="stroke:#181818;stroke-width:1.0;" x1="416.5" x2="457.5" y1="423.1875" y2="423.1875"/><polygon fill="#181818" points="426.5,419.1875,416.5,423.1875,426.5,427.1875,422.5,423.1875" style="stroke:#181818;stroke-width:1.0;"/><text fill="#000000" font-family="sans-serif" font-size="13" lengthAdjust="spacing" textLength="171" x="422.5" y="389.9888">Create new treatment Line</text><a href="ExampleScenario-example-8-scenario-resources.html#8-treatmentLine" target="_top" title="ExampleScenario-example-8-scenario-resources.html#8-treatmentLine" xlink:actuate="onRequest" xlink:href="ExampleScenario-example-8-scenario-resources.html#8-treatmentLine" xlink:show="new" xlink:title="ExampleScenario-example-8-scenario-resources.html#8-treatmentLine" xlink:type="simple"><text fill="#0000FF" font-family="sans-serif" font-size="13" lengthAdjust="spacing" text-decoration="underline" textLength="270" x="422.5" y="405.1216">New Treatment Line based on prescription</text></a><line style="stroke:#181818;stroke-width:1.0;" x1="415.5" x2="457.5" y1="467.4531" y2="467.4531"/><line style="stroke:#181818;stroke-width:1.0;" x1="457.5" x2="457.5" y1="467.4531" y2="480.4531"/><line style="stroke:#181818;stroke-width:1.0;" x1="416.5" x2="457.5" y1="480.4531" y2="480.4531"/><polygon fill="#181818" points="426.5,476.4531,416.5,480.4531,426.5,484.4531,422.5,480.4531" style="stroke:#181818;stroke-width:1.0;"/><text fill="#000000" font-family="sans-serif" font-size="13" lengthAdjust="spacing" textLength="107" x="422.5" y="447.2544">Resource Linking</text><a href="ExampleScenario-example-8-scenario-resources.html#8-1-provenance" target="_top" title="ExampleScenario-example-8-scenario-resources.html#8-1-provenance" xlink:actuate="onRequest" xlink:href="ExampleScenario-example-8-scenario-resources.html#8-1-provenance" xlink:show="new" xlink:title="ExampleScenario-example-8-scenario-resources.html#8-1-provenance" xlink:type="simple"><text fill="#0000FF" font-family="sans-serif" font-size="13" lengthAdjust="spacing" text-decoration="underline" textLength="227" x="422.5" y="462.3872">Link Prescription and treatmentLine</text></a><path d="M381.5,502.4531 L494.5,502.4531 L494.5,509.5859 L484.5,519.5859 L381.5,519.5859 L381.5,502.4531 " fill="#EEEEEE" style="stroke:#000000;stroke-width:1.5;"/><rect fill="none" height="105.6641" style="stroke:#000000;stroke-width:1.5;" width="369" x="381.5" y="502.4531"/><text fill="#000000" font-family="sans-serif" font-size="13" font-weight="bold" lengthAdjust="spacing" textLength="68" x="396.5" y="515.52">Dispense</text><polygon fill="#181818" points="687.5,551.8516,697.5,555.8516,687.5,559.8516,691.5,555.8516" style="stroke:#181818;stroke-width:1.0;"/><line style="stroke:#181818;stroke-width:1.0;" x1="415.5" x2="693.5" y1="555.8516" y2="555.8516"/><text fill="#000000" font-family="sans-serif" font-size="13" lengthAdjust="spacing" textLength="168" x="422.5" y="535.6528">Get patient's Prescriptions</text><a href="ExampleScenario-example-8-scenario-resources.html#EB" target="_top" title="ExampleScenario-example-8-scenario-resources.html#EB" xlink:actuate="onRequest" xlink:href="ExampleScenario-example-8-scenario-resources.html#EB" xlink:show="new" xlink:title="ExampleScenario-example-8-scenario-resources.html#EB" xlink:type="simple"><text fill="#0000FF" font-family="sans-serif" font-size="13" lengthAdjust="spacing" text-decoration="underline" textLength="89" x="422.5" y="550.7856">Empty Bundle</text></a><polygon fill="#181818" points="426.5,596.1172,416.5,600.1172,426.5,604.1172,422.5,600.1172" style="stroke:#181818;stroke-width:1.0;"/><line style="stroke:#181818;stroke-width:1.0;" x1="420.5" x2="698.5" y1="600.1172" y2="600.1172"/><text fill="#000000" font-family="sans-serif" font-size="13" lengthAdjust="spacing" textLength="59" x="432.5" y="579.9185">Dispense</text><a href="ExampleScenario-example-8-scenario-resources.html#8-dispense" target="_top" title="ExampleScenario-example-8-scenario-resources.html#8-dispense" xlink:actuate="onRequest" xlink:href="ExampleScenario-example-8-scenario-resources.html#8-dispense" xlink:show="new" xlink:title="ExampleScenario-example-8-scenario-resources.html#8-dispense" xlink:type="simple"><text fill="#0000FF" font-family="sans-serif" font-size="13" lengthAdjust="spacing" text-decoration="underline" textLength="59" x="432.5" y="595.0513">Dispense</text></a><path d="M381.5,622.1172 L552.5,622.1172 L552.5,629.25 L542.5,639.25 L381.5,639.25 L381.5,622.1172 " fill="#EEEEEE" style="stroke:#000000;stroke-width:1.5;"/><rect fill="none" height="74.3984" style="stroke:#000000;stroke-width:1.5;" width="264" x="381.5" y="622.1172"/><text fill="#000000" font-family="sans-serif" font-size="13" font-weight="bold" lengthAdjust="spacing" textLength="126" x="396.5" y="635.1841">Resource Linking</text><line style="stroke:#181818;stroke-width:1.0;" x1="415.5" x2="457.5" y1="675.5156" y2="675.5156"/><line style="stroke:#181818;stroke-width:1.0;" x1="457.5" x2="457.5" y1="675.5156" y2="688.5156"/><line style="stroke:#181818;stroke-width:1.0;" x1="416.5" x2="457.5" y1="688.5156" y2="688.5156"/><polygon fill="#181818" points="426.5,684.5156,416.5,688.5156,426.5,692.5156,422.5,688.5156" style="stroke:#181818;stroke-width:1.0;"/><text fill="#000000" font-family="sans-serif" font-size="13" lengthAdjust="spacing" textLength="107" x="422.5" y="655.3169">Resource Linking</text><a href="ExampleScenario-example-8-scenario-resources.html#8-2-provenance" target="_top" title="ExampleScenario-example-8-scenario-resources.html#8-2-provenance" xlink:actuate="onRequest" xlink:href="ExampleScenario-example-8-scenario-resources.html#8-2-provenance" xlink:show="new" xlink:title="ExampleScenario-example-8-scenario-resources.html#8-2-provenance" xlink:type="simple"><text fill="#0000FF" font-family="sans-serif" font-size="13" lengthAdjust="spacing" text-decoration="underline" textLength="211" x="422.5" y="670.4497">Link Dispense and treatmentLine</text></a><path d="M10,710.5156 L140,710.5156 L140,717.6484 L130,727.6484 L10,727.6484 L10,710.5156 " fill="#EEEEEE" style="stroke:#000000;stroke-width:1.5;"/><rect fill="none" height="105.6641" style="stroke:#000000;stroke-width:1.5;" width="439.5" x="10" y="710.5156"/><text fill="#000000" font-family="sans-serif" font-size="13" font-weight="bold" lengthAdjust="spacing" textLength="85" x="25" y="723.5825">Stop Usage</text><polygon fill="#181818" points="403.5,759.9141,413.5,763.9141,403.5,767.9141,407.5,763.9141" style="stroke:#181818;stroke-width:1.0;"/><line style="stroke:#181818;stroke-width:1.0;" x1="57.5" x2="409.5" y1="763.9141" y2="763.9141"/><text fill="#000000" font-family="sans-serif" font-size="13" lengthAdjust="spacing" textLength="334" x="64.5" y="743.7153">Stopping the taking of drug due to an adverse event</text><a href="ExampleScenario-example-8-scenario-resources.html#8-administration" target="_top" title="ExampleScenario-example-8-scenario-resources.html#8-administration" xlink:actuate="onRequest" xlink:href="ExampleScenario-example-8-scenario-resources.html#8-administration" xlink:show="new" xlink:title="ExampleScenario-example-8-scenario-resources.html#8-administration" xlink:type="simple"><text fill="#0000FF" font-family="sans-serif" font-size="13" lengthAdjust="spacing" text-decoration="underline" textLength="127" x="64.5" y="758.8481">Drug administration</text></a><polygon fill="#181818" points="403.5,804.1797,413.5,808.1797,403.5,812.1797,407.5,808.1797" style="stroke:#181818;stroke-width:1.0;"/><line style="stroke:#181818;stroke-width:1.0;" x1="57.5" x2="409.5" y1="808.1797" y2="808.1797"/><text fill="#000000" font-family="sans-serif" font-size="13" lengthAdjust="spacing" textLength="207" x="64.5" y="787.981">Report the stopage of the taking</text><a href="ExampleScenario-example-8-scenario-resources.html#8-usage" target="_top" title="ExampleScenario-example-8-scenario-resources.html#8-usage" xlink:actuate="onRequest" xlink:href="ExampleScenario-example-8-scenario-resources.html#8-usage" xlink:show="new" xlink:title="ExampleScenario-example-8-scenario-resources.html#8-usage" xlink:type="simple"><text fill="#0000FF" font-family="sans-serif" font-size="13" lengthAdjust="spacing" text-decoration="underline" textLength="162" x="64.5" y="803.1138">Report of non taking drug</text></a><path d="M381.5,830.1797 L552.5,830.1797 L552.5,837.3125 L542.5,847.3125 L381.5,847.3125 L381.5,830.1797 " fill="#EEEEEE" style="stroke:#000000;stroke-width:1.5;"/><rect fill="none" height="131.6641" style="stroke:#000000;stroke-width:1.5;" width="298" x="381.5" y="830.1797"/><text fill="#000000" font-family="sans-serif" font-size="13" font-weight="bold" lengthAdjust="spacing" textLength="126" x="396.5" y="843.2466">Resource Linking</text><line style="stroke:#181818;stroke-width:1.0;" x1="415.5" x2="457.5" y1="883.5781" y2="883.5781"/><line style="stroke:#181818;stroke-width:1.0;" x1="457.5" x2="457.5" y1="883.5781" y2="896.5781"/><line style="stroke:#181818;stroke-width:1.0;" x1="416.5" x2="457.5" y1="896.5781" y2="896.5781"/><polygon fill="#181818" points="426.5,892.5781,416.5,896.5781,426.5,900.5781,422.5,896.5781" style="stroke:#181818;stroke-width:1.0;"/><text fill="#000000" font-family="sans-serif" font-size="13" lengthAdjust="spacing" textLength="107" x="422.5" y="863.3794">Resource Linking</text><a href="ExampleScenario-example-8-scenario-resources.html#8-3-provenance" target="_top" title="ExampleScenario-example-8-scenario-resources.html#8-3-provenance" xlink:actuate="onRequest" xlink:href="ExampleScenario-example-8-scenario-resources.html#8-3-provenance" xlink:show="new" xlink:title="ExampleScenario-example-8-scenario-resources.html#8-3-provenance" xlink:type="simple"><text fill="#0000FF" font-family="sans-serif" font-size="13" lengthAdjust="spacing" text-decoration="underline" textLength="245" x="422.5" y="878.5122">Link Adminsitration and treatmentLine</text></a><line style="stroke:#181818;stroke-width:1.0;" x1="415.5" x2="457.5" y1="940.8438" y2="940.8438"/><line style="stroke:#181818;stroke-width:1.0;" x1="457.5" x2="457.5" y1="940.8438" y2="953.8438"/><line style="stroke:#181818;stroke-width:1.0;" x1="416.5" x2="457.5" y1="953.8438" y2="953.8438"/><polygon fill="#181818" points="426.5,949.8438,416.5,953.8438,426.5,957.8438,422.5,953.8438" style="stroke:#181818;stroke-width:1.0;"/><text fill="#000000" font-family="sans-serif" font-size="13" lengthAdjust="spacing" textLength="107" x="422.5" y="920.645">Resource Linking</text><a href="ExampleScenario-example-8-scenario-resources.html#8-4-provenance" target="_top" title="ExampleScenario-example-8-scenario-resources.html#8-4-provenance" xlink:actuate="onRequest" xlink:href="ExampleScenario-example-8-scenario-resources.html#8-4-provenance" xlink:show="new" xlink:title="ExampleScenario-example-8-scenario-resources.html#8-4-provenance" xlink:type="simple"><text fill="#0000FF" font-family="sans-serif" font-size="13" lengthAdjust="spacing" text-decoration="underline" textLength="193" x="422.5" y="935.7778">Link Usage and treatmentLine</text></a><!--SRC=[nPLDRnen48Rl_XKZUkYbHEh78SgX4YaeZPH4Aq9oIN8mwobOsRKjUvQq_xxZNRmiB8eGQLGE23psEy- -CvwTQIeGnZeuD071_e8IbSubQMk0bfBWHGPm7aFkzHpL9vXN1COIa7n6tgABWlSXe552o9oiXq6c9MH8wCC0-7GscbrERcOfElOdCAwyD5H7BpBXf2UTQyTBCBYNLT54xaTtL-sfR2bzANCTcbZsSpIz5WBui_ThuMtbuD9eqhA0t1fY7I7MA33ypddX32ui1Y0BqZch3PLewD68El5c3n9aR0Z7FWQuRkrvD0yFaz-oT0NUvcYartQ8pV_XwJ2a9RRELZx7SBAailWmEOT9wUWFd5T65VZq93W9fsfodi4FZv8G3BuarztnoKw7NGsusH7bvB5i7SDcCNjq0LgbXeXtYuqlUs0fdJoMj1MeCJSWSnbG0TFla1y40rVQu9k9eiWELRrqCDfqBHsFFMkpE9ReCzVJhZXgrbgGTUihZO8jw7w1qqtl5BE-Iki-TssVTuN3lshr9bN7c8Hph24g3Quar7_YNU_5-vNdIwyyxM0ze3ItP1tS1Rd0hJcL86FOCLmzRNdunfyyhfMl5g0ghASOju1QyTZbSRnwmrMKgjI69wrlNWFZc69xBTQoZpX5PptLW85f-KaYuORtM9ugcfBKMT74TrFZG7py_rhphxsQZw9JGIVtzbN-tMY-zMZgXdgb_SHV]--></g></svg>