<?xml version="1.0" encoding="us-ascii" standalone="no"?><svg xmlns="http://www.w3.org/2000/svg" xmlns:xlink="http://www.w3.org/1999/xlink" contentStyleType="text/css" height="1148px" preserveAspectRatio="none" style="width:771px;height:1148px;background:#FFFFFF;" version="1.1" viewBox="0 0 771 1148" width="771px" zoomAndPan="magnify"><defs/><g><text fill="#000000" font-family="sans-serif" font-size="14" font-weight="bold" lengthAdjust="spacing" textLength="232" x="271.25" y="27.9951">Change Branded Prescription</text><rect fill="none" height="149.9297" style="stroke:#000000;stroke-width:1.5;" width="420.5" x="10" y="135.5938"/><rect fill="none" height="188.9297" style="stroke:#000000;stroke-width:1.5;" width="280" x="362.5" y="299.5234"/><rect fill="none" height="105.6641" style="stroke:#000000;stroke-width:1.5;" width="326" x="362.5" y="502.4531"/><rect fill="none" height="74.3984" style="stroke:#000000;stroke-width:1.5;" width="264" x="362.5" y="622.1172"/><rect fill="none" height="162.9297" style="stroke:#000000;stroke-width:1.5;" width="403" x="362.5" y="710.5156"/><rect fill="none" height="162.9297" style="stroke:#000000;stroke-width:1.5;" width="543.5" x="10" y="887.4453"/><line style="stroke:#181818;stroke-width:0.5;stroke-dasharray:5.0,5.0;" x1="57" x2="57" y1="118.5938" y2="1067.375"/><line style="stroke:#181818;stroke-width:0.5;stroke-dasharray:5.0,5.0;" x1="217" x2="217" y1="118.5938" y2="1067.375"/><line style="stroke:#181818;stroke-width:0.5;stroke-dasharray:5.0,5.0;" x1="396.5" x2="396.5" y1="118.5938" y2="1067.375"/><line style="stroke:#181818;stroke-width:0.5;stroke-dasharray:5.0,5.0;" x1="637.5" x2="637.5" y1="118.5938" y2="1067.375"/><line style="stroke:#181818;stroke-width:0.5;stroke-dasharray:5.0,5.0;" x1="721.5" x2="721.5" y1="118.5938" y2="1067.375"/><text fill="#000000" font-family="sans-serif" font-size="14" lengthAdjust="spacing" textLength="69" x="20" y="115.292">Pia Peters</text><ellipse cx="57.5" cy="50.7969" fill="#E2E2F0" rx="8" ry="8" style="stroke:#181818;stroke-width:0.5;"/><path d="M57.5,58.7969 L57.5,85.7969 M44.5,66.7969 L70.5,66.7969 M57.5,85.7969 L44.5,100.7969 M57.5,85.7969 L70.5,100.7969 " fill="none" style="stroke:#181818;stroke-width:0.5;"/><text fill="#000000" font-family="sans-serif" font-size="14" lengthAdjust="spacing" textLength="69" x="20" y="1079.3701">Pia Peters</text><ellipse cx="57.5" cy="1091.1719" fill="#E2E2F0" rx="8" ry="8" style="stroke:#181818;stroke-width:0.5;"/><path d="M57.5,1099.1719 L57.5,1126.1719 M44.5,1107.1719 L70.5,1107.1719 M57.5,1126.1719 L44.5,1141.1719 M57.5,1126.1719 L70.5,1141.1719 " fill="none" style="stroke:#181818;stroke-width:0.5;"/><text fill="#000000" font-family="sans-serif" font-size="14" lengthAdjust="spacing" textLength="71" x="179" y="115.292">Dr. Durant</text><ellipse cx="217.5" cy="50.7969" fill="#E2E2F0" rx="8" ry="8" style="stroke:#181818;stroke-width:0.5;"/><path d="M217.5,58.7969 L217.5,85.7969 M204.5,66.7969 L230.5,66.7969 M217.5,85.7969 L204.5,100.7969 M217.5,85.7969 L230.5,100.7969 " fill="none" style="stroke:#181818;stroke-width:0.5;"/><text fill="#000000" font-family="sans-serif" font-size="14" lengthAdjust="spacing" textLength="71" x="179" y="1079.3701">Dr. Durant</text><ellipse cx="217.5" cy="1091.1719" fill="#E2E2F0" rx="8" ry="8" style="stroke:#181818;stroke-width:0.5;"/><path d="M217.5,1099.1719 L217.5,1126.1719 M204.5,1107.1719 L230.5,1107.1719 M217.5,1126.1719 L204.5,1141.1719 M217.5,1126.1719 L230.5,1141.1719 " fill="none" style="stroke:#181818;stroke-width:0.5;"/><rect fill="#E2E2F0" height="30.2969" rx="2.5" ry="2.5" style="stroke:#181818;stroke-width:0.5;" width="48" x="372.5" y="87.2969"/><text fill="#000000" font-family="sans-serif" font-size="14" lengthAdjust="spacing" textLength="34" x="379.5" y="107.292">Vault</text><rect fill="#E2E2F0" height="30.2969" rx="2.5" ry="2.5" style="stroke:#181818;stroke-width:0.5;" width="48" x="372.5" y="1066.375"/><text fill="#000000" font-family="sans-serif" font-size="14" lengthAdjust="spacing" textLength="34" x="379.5" y="1086.3701">Vault</text><text fill="#000000" font-family="sans-serif" font-size="14" lengthAdjust="spacing" textLength="76" x="596.5" y="115.292">Pharmacist</text><ellipse cx="637.5" cy="50.7969" fill="#E2E2F0" rx="8" ry="8" style="stroke:#181818;stroke-width:0.5;"/><path d="M637.5,58.7969 L637.5,85.7969 M624.5,66.7969 L650.5,66.7969 M637.5,85.7969 L624.5,100.7969 M637.5,85.7969 L650.5,100.7969 " fill="none" style="stroke:#181818;stroke-width:0.5;"/><text fill="#000000" font-family="sans-serif" font-size="14" lengthAdjust="spacing" textLength="76" x="596.5" y="1079.3701">Pharmacist</text><ellipse cx="637.5" cy="1091.1719" fill="#E2E2F0" rx="8" ry="8" style="stroke:#181818;stroke-width:0.5;"/><path d="M637.5,1099.1719 L637.5,1126.1719 M624.5,1107.1719 L650.5,1107.1719 M637.5,1126.1719 L624.5,1141.1719 M637.5,1126.1719 L650.5,1141.1719 " fill="none" style="stroke:#181818;stroke-width:0.5;"/><text fill="#000000" font-family="sans-serif" font-size="14" lengthAdjust="spacing" textLength="61" x="688.5" y="115.292">Dr. Omar</text><ellipse cx="722" cy="50.7969" fill="#E2E2F0" rx="8" ry="8" style="stroke:#181818;stroke-width:0.5;"/><path d="M722,58.7969 L722,85.7969 M709,66.7969 L735,66.7969 M722,85.7969 L709,100.7969 M722,85.7969 L735,100.7969 " fill="none" style="stroke:#181818;stroke-width:0.5;"/><text fill="#000000" font-family="sans-serif" font-size="14" lengthAdjust="spacing" textLength="61" x="688.5" y="1079.3701">Dr. Omar</text><ellipse cx="722" cy="1091.1719" fill="#E2E2F0" rx="8" ry="8" style="stroke:#181818;stroke-width:0.5;"/><path d="M722,1099.1719 L722,1126.1719 M709,1107.1719 L735,1107.1719 M722,1126.1719 L709,1141.1719 M722,1126.1719 L735,1141.1719 " fill="none" style="stroke:#181818;stroke-width:0.5;"/><path d="M10,135.5938 L157,135.5938 L157,142.7266 L147,152.7266 L10,152.7266 L10,135.5938 " fill="#EEEEEE" style="stroke:#000000;stroke-width:1.5;"/><rect fill="none" height="149.9297" style="stroke:#000000;stroke-width:1.5;" width="420.5" x="10" y="135.5938"/><text fill="#000000" font-family="sans-serif" font-size="13" font-weight="bold" lengthAdjust="spacing" textLength="102" x="25" y="148.6606">Initial Contact</text><polygon fill="#181818" points="205.5,184.9922,215.5,188.9922,205.5,192.9922,209.5,188.9922" style="stroke:#181818;stroke-width:1.0;"/><line style="stroke:#181818;stroke-width:1.0;" x1="57.5" x2="211.5" y1="188.9922" y2="188.9922"/><text fill="#000000" font-family="sans-serif" font-size="13" lengthAdjust="spacing" textLength="136" x="64.5" y="168.7935">Goes to appointment</text><text fill="#000000" font-family="sans-serif" font-size="13" lengthAdjust="spacing" textLength="4" x="64.5" y="183.9263">&#160;</text><polygon fill="#181818" points="228.5,229.2578,218.5,233.2578,228.5,237.2578,224.5,233.2578" style="stroke:#181818;stroke-width:1.0;"/><line style="stroke:#181818;stroke-width:1.0;" x1="222.5" x2="395.5" y1="233.2578" y2="233.2578"/><text fill="#000000" font-family="sans-serif" font-size="13" lengthAdjust="spacing" textLength="155" x="234.5" y="213.0591">Get Patient's Medication</text><a href="ExampleScenario-example-1-scenario-resources.html#EB" target="_top" title="ExampleScenario-example-1-scenario-resources.html#EB" xlink:actuate="onRequest" xlink:href="ExampleScenario-example-1-scenario-resources.html#EB" xlink:show="new" xlink:title="ExampleScenario-example-1-scenario-resources.html#EB" xlink:type="simple"><text fill="#0000FF" font-family="sans-serif" font-size="13" lengthAdjust="spacing" text-decoration="underline" textLength="89" x="234.5" y="228.1919">Empty Bundle</text></a><polygon fill="#181818" points="384.5,273.5234,394.5,277.5234,384.5,281.5234,388.5,277.5234" style="stroke:#181818;stroke-width:1.0;"/><line style="stroke:#181818;stroke-width:1.0;" x1="217.5" x2="390.5" y1="277.5234" y2="277.5234"/><text fill="#000000" font-family="sans-serif" font-size="13" lengthAdjust="spacing" textLength="151" x="224.5" y="257.3247">Create new prescription</text><a href="ExampleScenario-example-1-scenario-resources.html#1-prescription" target="_top" title="ExampleScenario-example-1-scenario-resources.html#1-prescription" xlink:actuate="onRequest" xlink:href="ExampleScenario-example-1-scenario-resources.html#1-prescription" xlink:show="new" xlink:title="ExampleScenario-example-1-scenario-resources.html#1-prescription" xlink:type="simple"><text fill="#0000FF" font-family="sans-serif" font-size="13" lengthAdjust="spacing" text-decoration="underline" textLength="117" x="224.5" y="272.4575">Amlor Prescription</text></a><path d="M362.5,299.5234 L627.5,299.5234 L627.5,306.6563 L617.5,316.6563 L362.5,316.6563 L362.5,299.5234 " fill="#EEEEEE" style="stroke:#000000;stroke-width:1.5;"/><rect fill="none" height="188.9297" style="stroke:#000000;stroke-width:1.5;" width="280" x="362.5" y="299.5234"/><text fill="#000000" font-family="sans-serif" font-size="13" font-weight="bold" lengthAdjust="spacing" textLength="220" x="377.5" y="312.5903">Treatment resources Creation</text><line style="stroke:#181818;stroke-width:1.0;" x1="396.5" x2="438.5" y1="352.9219" y2="352.9219"/><line style="stroke:#181818;stroke-width:1.0;" x1="438.5" x2="438.5" y1="352.9219" y2="365.9219"/><line style="stroke:#181818;stroke-width:1.0;" x1="397.5" x2="438.5" y1="365.9219" y2="365.9219"/><polygon fill="#181818" points="407.5,361.9219,397.5,365.9219,407.5,369.9219,403.5,365.9219" style="stroke:#181818;stroke-width:1.0;"/><text fill="#000000" font-family="sans-serif" font-size="13" lengthAdjust="spacing" textLength="141" x="403.5" y="332.7231">Create new treatment</text><a href="ExampleScenario-example-1-scenario-resources.html#1-treatment" target="_top" title="ExampleScenario-example-1-scenario-resources.html#1-treatment" xlink:actuate="onRequest" xlink:href="ExampleScenario-example-1-scenario-resources.html#1-treatment" xlink:show="new" xlink:title="ExampleScenario-example-1-scenario-resources.html#1-treatment" xlink:type="simple"><text fill="#0000FF" font-family="sans-serif" font-size="13" lengthAdjust="spacing" text-decoration="underline" textLength="98" x="403.5" y="347.856">New Treatment</text></a><line style="stroke:#181818;stroke-width:1.0;" x1="396.5" x2="438.5" y1="410.1875" y2="410.1875"/><line style="stroke:#181818;stroke-width:1.0;" x1="438.5" x2="438.5" y1="410.1875" y2="423.1875"/><line style="stroke:#181818;stroke-width:1.0;" x1="397.5" x2="438.5" y1="423.1875" y2="423.1875"/><polygon fill="#181818" points="407.5,419.1875,397.5,423.1875,407.5,427.1875,403.5,423.1875" style="stroke:#181818;stroke-width:1.0;"/><text fill="#000000" font-family="sans-serif" font-size="13" lengthAdjust="spacing" textLength="171" x="403.5" y="389.9888">Create new treatment Line</text><a href="ExampleScenario-example-1-scenario-resources.html#1-treatmentLine" target="_top" title="ExampleScenario-example-1-scenario-resources.html#1-treatmentLine" xlink:actuate="onRequest" xlink:href="ExampleScenario-example-1-scenario-resources.html#1-treatmentLine" xlink:show="new" xlink:title="ExampleScenario-example-1-scenario-resources.html#1-treatmentLine" xlink:type="simple"><text fill="#0000FF" font-family="sans-serif" font-size="13" lengthAdjust="spacing" text-decoration="underline" textLength="128" x="403.5" y="405.1216">New Treatment Line</text></a><line style="stroke:#181818;stroke-width:1.0;" x1="396.5" x2="438.5" y1="467.4531" y2="467.4531"/><line style="stroke:#181818;stroke-width:1.0;" x1="438.5" x2="438.5" y1="467.4531" y2="480.4531"/><line style="stroke:#181818;stroke-width:1.0;" x1="397.5" x2="438.5" y1="480.4531" y2="480.4531"/><polygon fill="#181818" points="407.5,476.4531,397.5,480.4531,407.5,484.4531,403.5,480.4531" style="stroke:#181818;stroke-width:1.0;"/><text fill="#000000" font-family="sans-serif" font-size="13" lengthAdjust="spacing" textLength="107" x="403.5" y="447.2544">Resource Linking</text><a href="ExampleScenario-example-1-scenario-resources.html#1-1-provenance" target="_top" title="ExampleScenario-example-1-scenario-resources.html#1-1-provenance" xlink:actuate="onRequest" xlink:href="ExampleScenario-example-1-scenario-resources.html#1-1-provenance" xlink:show="new" xlink:title="ExampleScenario-example-1-scenario-resources.html#1-1-provenance" xlink:type="simple"><text fill="#0000FF" font-family="sans-serif" font-size="13" lengthAdjust="spacing" text-decoration="underline" textLength="227" x="403.5" y="462.3872">Link Prescription and treatmentLine</text></a><path d="M362.5,502.4531 L475.5,502.4531 L475.5,509.5859 L465.5,519.5859 L362.5,519.5859 L362.5,502.4531 " fill="#EEEEEE" style="stroke:#000000;stroke-width:1.5;"/><rect fill="none" height="105.6641" style="stroke:#000000;stroke-width:1.5;" width="326" x="362.5" y="502.4531"/><text fill="#000000" font-family="sans-serif" font-size="13" font-weight="bold" lengthAdjust="spacing" textLength="68" x="377.5" y="515.52">Dispense</text><polygon fill="#181818" points="625.5,551.8516,635.5,555.8516,625.5,559.8516,629.5,555.8516" style="stroke:#181818;stroke-width:1.0;"/><line style="stroke:#181818;stroke-width:1.0;" x1="396.5" x2="631.5" y1="555.8516" y2="555.8516"/><text fill="#000000" font-family="sans-serif" font-size="13" lengthAdjust="spacing" textLength="168" x="403.5" y="535.6528">Get patient's Prescriptions</text><a href="ExampleScenario-example-1-scenario-resources.html#EB" target="_top" title="ExampleScenario-example-1-scenario-resources.html#EB" xlink:actuate="onRequest" xlink:href="ExampleScenario-example-1-scenario-resources.html#EB" xlink:show="new" xlink:title="ExampleScenario-example-1-scenario-resources.html#EB" xlink:type="simple"><text fill="#0000FF" font-family="sans-serif" font-size="13" lengthAdjust="spacing" text-decoration="underline" textLength="89" x="403.5" y="550.7856">Empty Bundle</text></a><polygon fill="#181818" points="407.5,596.1172,397.5,600.1172,407.5,604.1172,403.5,600.1172" style="stroke:#181818;stroke-width:1.0;"/><line style="stroke:#181818;stroke-width:1.0;" x1="401.5" x2="636.5" y1="600.1172" y2="600.1172"/><text fill="#000000" font-family="sans-serif" font-size="13" lengthAdjust="spacing" textLength="133" x="413.5" y="579.9185">Create new dispense</text><a href="ExampleScenario-example-1-scenario-resources.html#1-dispense" target="_top" title="ExampleScenario-example-1-scenario-resources.html#1-dispense" xlink:actuate="onRequest" xlink:href="ExampleScenario-example-1-scenario-resources.html#1-dispense" xlink:show="new" xlink:title="ExampleScenario-example-1-scenario-resources.html#1-dispense" xlink:type="simple"><text fill="#0000FF" font-family="sans-serif" font-size="13" lengthAdjust="spacing" text-decoration="underline" textLength="176" x="413.5" y="595.0513">Amlodipin Sandoz dispense</text></a><path d="M362.5,622.1172 L538.5,622.1172 L538.5,629.25 L528.5,639.25 L362.5,639.25 L362.5,622.1172 " fill="#EEEEEE" style="stroke:#000000;stroke-width:1.5;"/><rect fill="none" height="74.3984" style="stroke:#000000;stroke-width:1.5;" width="264" x="362.5" y="622.1172"/><text fill="#000000" font-family="sans-serif" font-size="13" font-weight="bold" lengthAdjust="spacing" textLength="131" x="377.5" y="635.1841">Resource Linkage</text><line style="stroke:#181818;stroke-width:1.0;" x1="396.5" x2="438.5" y1="675.5156" y2="675.5156"/><line style="stroke:#181818;stroke-width:1.0;" x1="438.5" x2="438.5" y1="675.5156" y2="688.5156"/><line style="stroke:#181818;stroke-width:1.0;" x1="397.5" x2="438.5" y1="688.5156" y2="688.5156"/><polygon fill="#181818" points="407.5,684.5156,397.5,688.5156,407.5,692.5156,403.5,688.5156" style="stroke:#181818;stroke-width:1.0;"/><text fill="#000000" font-family="sans-serif" font-size="13" lengthAdjust="spacing" textLength="107" x="403.5" y="655.3169">Resource Linking</text><a href="ExampleScenario-example-1-scenario-resources.html#1-2-provenance" target="_top" title="ExampleScenario-example-1-scenario-resources.html#1-2-provenance" xlink:actuate="onRequest" xlink:href="ExampleScenario-example-1-scenario-resources.html#1-2-provenance" xlink:show="new" xlink:title="ExampleScenario-example-1-scenario-resources.html#1-2-provenance" xlink:type="simple"><text fill="#0000FF" font-family="sans-serif" font-size="13" lengthAdjust="spacing" text-decoration="underline" textLength="211" x="403.5" y="670.4497">Link Dispense and treatmentLine</text></a><path d="M362.5,710.5156 L640.5,710.5156 L640.5,717.6484 L630.5,727.6484 L362.5,727.6484 L362.5,710.5156 " fill="#EEEEEE" style="stroke:#000000;stroke-width:1.5;"/><rect fill="none" height="162.9297" style="stroke:#000000;stroke-width:1.5;" width="403" x="362.5" y="710.5156"/><text fill="#000000" font-family="sans-serif" font-size="13" font-weight="bold" lengthAdjust="spacing" textLength="233" x="377.5" y="723.5825">Vizualization Data for physician</text><polygon fill="#181818" points="407.5,759.9141,397.5,763.9141,407.5,767.9141,403.5,763.9141" style="stroke:#181818;stroke-width:1.0;"/><line style="stroke:#181818;stroke-width:1.0;" x1="401.5" x2="721" y1="763.9141" y2="763.9141"/><text fill="#000000" font-family="sans-serif" font-size="13" lengthAdjust="spacing" textLength="143" x="413.5" y="743.7153">Requiring Visualization</text><text fill="#000000" font-family="sans-serif" font-size="13" lengthAdjust="spacing" textLength="4" x="413.5" y="758.8481">&#160;</text><line style="stroke:#181818;stroke-width:1.0;" x1="396.5" x2="438.5" y1="808.1797" y2="808.1797"/><line style="stroke:#181818;stroke-width:1.0;" x1="438.5" x2="438.5" y1="808.1797" y2="821.1797"/><line style="stroke:#181818;stroke-width:1.0;" x1="397.5" x2="438.5" y1="821.1797" y2="821.1797"/><polygon fill="#181818" points="407.5,817.1797,397.5,821.1797,407.5,825.1797,403.5,821.1797" style="stroke:#181818;stroke-width:1.0;"/><text fill="#000000" font-family="sans-serif" font-size="13" lengthAdjust="spacing" textLength="138" x="403.5" y="787.981">Creating Visualization</text><text fill="#000000" font-family="sans-serif" font-size="13" lengthAdjust="spacing" textLength="4" x="403.5" y="803.1138">&#160;</text><polygon fill="#181818" points="710,861.4453,720,865.4453,710,869.4453,714,865.4453" style="stroke:#181818;stroke-width:1.0;"/><line style="stroke:#181818;stroke-width:1.0;" x1="396.5" x2="716" y1="865.4453" y2="865.4453"/><text fill="#000000" font-family="sans-serif" font-size="13" lengthAdjust="spacing" textLength="149" x="403.5" y="845.2466">Displaying Visualization</text><a href="ExampleScenario-example-1-scenario-resources.html#1-summary-view" target="_top" title="ExampleScenario-example-1-scenario-resources.html#1-summary-view" xlink:actuate="onRequest" xlink:href="ExampleScenario-example-1-scenario-resources.html#1-summary-view" xlink:show="new" xlink:title="ExampleScenario-example-1-scenario-resources.html#1-summary-view" xlink:type="simple"><text fill="#0000FF" font-family="sans-serif" font-size="13" lengthAdjust="spacing" text-decoration="underline" textLength="190" x="403.5" y="860.3794">Summary view for a Physician</text></a><path d="M10,887.4453 L486,887.4453 L486,894.5781 L476,904.5781 L10,904.5781 L10,887.4453 " fill="#EEEEEE" style="stroke:#000000;stroke-width:1.5;"/><rect fill="none" height="162.9297" style="stroke:#000000;stroke-width:1.5;" width="543.5" x="10" y="887.4453"/><text fill="#000000" font-family="sans-serif" font-size="13" font-weight="bold" lengthAdjust="spacing" textLength="431" x="25" y="900.5122">Vizualization Data for patient (scheduled Administrations)</text><polygon fill="#181818" points="384.5,936.8438,394.5,940.8438,384.5,944.8438,388.5,940.8438" style="stroke:#181818;stroke-width:1.0;"/><line style="stroke:#181818;stroke-width:1.0;" x1="57.5" x2="390.5" y1="940.8438" y2="940.8438"/><text fill="#000000" font-family="sans-serif" font-size="13" lengthAdjust="spacing" textLength="143" x="64.5" y="920.645">Requiring Visualization</text><text fill="#000000" font-family="sans-serif" font-size="13" lengthAdjust="spacing" textLength="4" x="64.5" y="935.7778">&#160;</text><line style="stroke:#181818;stroke-width:1.0;" x1="396.5" x2="438.5" y1="985.1094" y2="985.1094"/><line style="stroke:#181818;stroke-width:1.0;" x1="438.5" x2="438.5" y1="985.1094" y2="998.1094"/><line style="stroke:#181818;stroke-width:1.0;" x1="397.5" x2="438.5" y1="998.1094" y2="998.1094"/><polygon fill="#181818" points="407.5,994.1094,397.5,998.1094,407.5,1002.1094,403.5,998.1094" style="stroke:#181818;stroke-width:1.0;"/><text fill="#000000" font-family="sans-serif" font-size="13" lengthAdjust="spacing" textLength="138" x="403.5" y="964.9106">Creating Visualization</text><text fill="#000000" font-family="sans-serif" font-size="13" lengthAdjust="spacing" textLength="4" x="403.5" y="980.0435">&#160;</text><polygon fill="#181818" points="68.5,1038.375,58.5,1042.375,68.5,1046.375,64.5,1042.375" style="stroke:#181818;stroke-width:1.0;"/><line style="stroke:#181818;stroke-width:1.0;" x1="62.5" x2="395.5" y1="1042.375" y2="1042.375"/><text fill="#000000" font-family="sans-serif" font-size="13" lengthAdjust="spacing" textLength="149" x="74.5" y="1022.1763">Displaying Visualization</text><a href="ExampleScenario-example-1-scenario-resources.html#1-scheduled-view" target="_top" title="ExampleScenario-example-1-scenario-resources.html#1-scheduled-view" xlink:actuate="onRequest" xlink:href="ExampleScenario-example-1-scenario-resources.html#1-scheduled-view" xlink:show="new" xlink:title="ExampleScenario-example-1-scenario-resources.html#1-scheduled-view" xlink:type="simple"><text fill="#0000FF" font-family="sans-serif" font-size="13" lengthAdjust="spacing" text-decoration="underline" textLength="284" x="74.5" y="1037.3091">Scheduled Administrations view for a Patient</text></a><!--SRC=[jLNBRjim4BppAnRfeUr10PAZ3mNyGXeWIONOzIN9OI5jxKKbaYMfjFRNT_MC1Bk5uTO-6A2MEpESuMF98IEORb2l2IOETKefn8vyujW6DbefJ89nS14pGao1dBy0z12FbxVpXsLRdRbBc1NI7whgJQmiki09M_a45oiiihgo6d-zwxhY3ReS4_PrBVuyVhpl8tx9qJLurqg1_0x-hPqfBDng3emPJ8qEWg5K8n6YJz8F8xWnv24OG6iDwv2J3izQLOBUvb2060DBxRs7UqevmTA6P_tqDF-5kSreaP16noQYUXnTHRxz9CQPmYNaBpSXpzxD9p3FRTZ2fD1fHYylIaY4gkOSmTGH1W9DFy7sF3-Dx2hgOy0upyJ6VfH2JphjMxOi-KiVeCEgDLN1TyuSa1lQpbErTW3m872T4D5u52tSiQP_vYv1XlmLxY4HZmr8EU4xw_Mft6LAvbMgki4QH0Ho064WRp-q6NjBsbCleEhWDBlNThkt3-p_rmQkgGwdapRAJlMcxQ_sRigMDIp44BFhaFVT6EI2QrBdY-vwBxesYcDYM_6km8ntrU626GQ4Rt90xMRhvPf4EMzooGrb_oZOYLvfzM-j_IjhaC5VPvROeqflXji3Cqzpn1UvtD3Rw9Kb_KKzW6fGBatUYtPnnzjHxrxuu9CDfKKchz4upLdB4-6ggVxZu68_Yraj_XaCQrVLMFQdHGvCh2tfB5I_0G00]--></g></svg>